<svg xmlns="http://www.w3.org/2000/svg" xmlns:xlink="http://www.w3.org/1999/xlink" width="500" zoomAndPan="magnify" viewBox="0 0 375 374.999991" height="500" preserveAspectRatio="xMidYMid meet" version="1.0"><path fill="#9490c6" d="M 363.785156 223.347656 C 361.132812 234.4375 355.335938 242.191406 346.785156 246.511719 C 340.984375 264.273438 325.851562 272.421875 303.738281 269.476562 C 298.332031 268.789062 292.925781 267.808594 287.617188 266.53125 C 296.070312 282.335938 298.921875 298.234375 295.285156 312.074219 C 291.453125 326.011719 284.964844 335.53125 276.710938 339.261719 C 272.1875 350.644531 265.40625 358.007812 257.347656 360.167969 C 255.679688 360.558594 254.007812 360.855469 252.335938 360.855469 C 245.261719 360.855469 237.691406 357.125 230.519531 350.058594 C 226.195312 345.835938 222.460938 341.027344 219.414062 335.726562 C 211.945312 322.476562 205.75 308.738281 200.835938 294.601562 C 197.691406 303.535156 193.367188 311.484375 187.765625 318.550781 C 185.015625 322.085938 182.066406 324.929688 179.019531 327.285156 C 176.859375 331.113281 174.5 334.746094 171.746094 338.179688 C 161.230469 351.429688 148.257812 356.339844 135.972656 351.824219 C 123.394531 347.113281 117.203125 336.609375 117.691406 320.515625 C 117.988281 309.71875 119.460938 298.824219 120.9375 288.222656 C 121.527344 283.609375 122.214844 278.898438 122.707031 274.1875 L 122.707031 274.089844 C 126.636719 262.703125 131.355469 251.515625 136.859375 240.71875 C 122.3125 257.011719 107.273438 269.671875 90.765625 279.488281 C 80.148438 285.964844 67.273438 289.695312 56.070312 292.445312 C 44.574219 295.289062 33.074219 289.988281 27.375 279.195312 C 21.871094 268.691406 26.683594 260.054688 32.679688 252.300781 C 35.335938 248.867188 38.28125 245.726562 41.527344 242.878906 C 42.015625 242.484375 42.507812 241.996094 43.097656 241.601562 C 44.574219 238.460938 46.636719 235.515625 48.898438 232.671875 C 51.453125 229.234375 54.402344 226.09375 57.644531 223.25 C 68.453125 213.828125 80.050781 205.679688 92.140625 198.320312 C 87.128906 198.417969 82.015625 198.417969 76.90625 198.320312 C 54.007812 197.632812 35.039062 190.171875 20.59375 176.039062 C 11.648438 167.304688 7.71875 157.882812 9.386719 149.34375 C 10.863281 141.980469 16.367188 135.503906 25.308594 130.792969 C 25.40625 130.398438 25.40625 130.007812 25.507812 129.613281 C 27.175781 121.074219 34.449219 113.8125 45.851562 109.101562 C 61.96875 102.328125 78.28125 102.820312 95.1875 104.488281 C 85.261719 87.410156 81.917969 71.214844 84.964844 54.726562 C 86.441406 46.972656 90.175781 40.984375 95.875 37.453125 C 97.445312 36.46875 99.214844 35.683594 100.984375 35.097656 C 102.460938 27.34375 106.292969 21.355469 111.992188 17.820312 C 118.773438 13.601562 128.109375 13.011719 138.921875 16.054688 L 139.117188 16.152344 C 140.199219 17.035156 141.671875 18.019531 143.34375 19.195312 C 147.667969 22.238281 153.664062 26.359375 158.378906 31.5625 C 167.226562 41.378906 173.023438 51.976562 176.855469 63.167969 C 179.214844 54.726562 182.261719 46.382812 185.308594 38.140625 L 185.800781 36.863281 C 188.847656 28.714844 193.761719 23.417969 200.347656 21.160156 C 200.738281 20.078125 201.132812 19.097656 201.527344 18.019531 L 201.917969 17.035156 C 206.046875 5.75 213.910156 0.15625 224.816406 0.351562 C 238.28125 0.644531 247.816406 6.730469 252.433594 17.722656 C 255.1875 23.90625 256.660156 30.582031 256.957031 37.355469 C 257.347656 63.855469 250.566406 89.273438 236.414062 114.203125 C 238.675781 111.457031 241.035156 108.707031 243.492188 106.058594 C 256.070312 88.390625 271.796875 72.195312 291.15625 56.984375 C 299.902344 50.210938 309.632812 45.207031 320.347656 42.261719 C 326.929688 40.496094 333.320312 41.476562 338.234375 45.207031 C 343.738281 49.230469 346.980469 56.101562 347.175781 63.953125 C 347.570312 77.988281 343.148438 91.042969 334.203125 102.917969 C 330.46875 107.824219 326.539062 112.4375 322.214844 116.660156 C 320.9375 118.71875 319.660156 120.683594 318.183594 122.644531 C 305.507812 139.429688 289.683594 152.285156 270.125 161.710938 C 284.179688 163.179688 299.511719 166.027344 317.203125 170.347656 L 317.300781 170.347656 C 318.96875 171.132812 321.035156 172.015625 323.394531 173.09375 C 329.878906 175.941406 338.824219 179.769531 346.882812 184.675781 C 361.625 193.707031 367.617188 207.445312 363.785156 223.347656 Z M 363.785156 223.347656 " fill-opacity="1" fill-rule="nonzero"/><path fill="#6968a8" d="M 222.261719 138.644531 C 221.769531 138.347656 221.28125 138.152344 220.789062 137.859375 C 225.308594 131.96875 229.339844 126.082031 233.074219 120.191406 C 235.039062 117.640625 237.003906 115.1875 239.167969 112.734375 C 237.003906 116.070312 234.941406 119.40625 232.976562 122.742188 C 229.632812 128.140625 226.097656 133.246094 222.261719 138.644531 Z M 237.496094 160.53125 C 247.324219 160.039062 257.445312 160.335938 268.257812 161.414062 C 288.40625 152.089844 304.523438 139.035156 317.398438 121.957031 C 317.988281 121.171875 318.578125 120.386719 319.167969 119.601562 C 298.726562 138.644531 271.992188 150.714844 236.90625 156.996094 C 237.300781 158.078125 237.398438 159.351562 237.496094 160.53125 Z M 105.015625 105.273438 L 106.980469 105.566406 L 147.667969 125.6875 C 135.777344 115.480469 124.472656 104.09375 115.234375 90.550781 C 102.460938 72 97.742188 54.234375 100.789062 36.273438 C 99.214844 36.863281 97.742188 37.550781 96.367188 38.335938 C 90.960938 41.671875 87.324219 47.464844 85.949219 54.921875 C 82.902344 71.3125 86.339844 87.605469 96.5625 104.390625 C 99.3125 104.585938 102.164062 104.980469 105.015625 105.273438 Z M 328.503906 250.335938 C 325.75 250.335938 322.902344 250.140625 319.855469 249.75 C 299.414062 247.097656 279.363281 240.328125 258.726562 229.136719 C 265.113281 236.203125 271.304688 243.371094 277.203125 250.730469 C 281.035156 255.539062 284.277344 260.445312 287.03125 265.355469 C 292.632812 266.730469 298.234375 267.808594 303.933594 268.496094 C 325.164062 271.34375 339.804688 263.6875 345.605469 247 C 340.691406 249.160156 334.988281 250.335938 328.503906 250.335938 Z M 94.007812 197.140625 C 106.390625 189.679688 119.070312 183.203125 131.84375 177.316406 C 121.328125 178 110.519531 178.589844 100.003906 178.589844 C 97.742188 178.589844 95.480469 178.589844 93.222656 178.492188 C 70.222656 177.804688 51.15625 170.347656 36.808594 156.113281 C 28.75 148.164062 24.71875 139.625 25.308594 131.773438 C 17.054688 136.289062 11.84375 142.375 10.46875 149.242188 C 8.898438 157.488281 12.730469 166.617188 21.378906 175.058594 C 35.628906 188.996094 54.402344 196.453125 77.101562 197.140625 C 82.707031 197.335938 88.40625 197.335938 94.007812 197.140625 Z M 186.683594 37.355469 L 186.195312 38.628906 C 183.050781 47.265625 179.804688 56.101562 177.347656 64.933594 C 183.738281 84.5625 184.226562 105.566406 184.328125 126.277344 C 184.523438 123.234375 184.621094 120.289062 184.816406 117.34375 C 185.800781 98.894531 186.882812 79.753906 189.242188 60.910156 C 190.910156 47.855469 195.234375 35 199.855469 22.535156 C 193.957031 24.691406 189.535156 29.699219 186.683594 37.355469 Z M 268.554688 341.027344 C 261.476562 341.027344 253.910156 337.296875 246.734375 330.230469 C 242.410156 326.011719 238.578125 321.203125 235.53125 315.902344 C 221.574219 291.460938 212.140625 264.570312 207.226562 235.8125 C 207.519531 242.78125 207.519531 249.945312 207.324219 257.304688 C 206.832031 270.851562 204.964844 282.628906 201.527344 292.933594 C 206.441406 307.460938 212.730469 321.59375 220.394531 335.140625 C 223.34375 340.339844 227.078125 345.050781 231.304688 349.273438 C 239.953125 357.8125 249.09375 361.34375 257.152344 359.183594 C 264.71875 357.222656 271.011719 350.449219 275.433594 339.851562 C 274.746094 340.046875 274.15625 340.339844 273.464844 340.4375 C 271.992188 340.832031 270.222656 341.027344 268.554688 341.027344 Z M 152.1875 331.996094 C 139.609375 327.285156 133.515625 316.6875 134.007812 300.589844 C 134.300781 289.792969 135.777344 278.898438 137.25 268.300781 C 137.839844 263.6875 138.527344 258.976562 139.019531 254.265625 L 139.019531 254.164062 C 143.441406 241.601562 148.0625 230.707031 153.074219 220.894531 C 138.527344 237.085938 123.492188 249.75 107.175781 259.660156 C 96.660156 266.042969 83.6875 269.671875 72.386719 272.519531 C 70.421875 273.011719 68.355469 273.207031 66.390625 273.207031 C 57.152344 273.207031 48.601562 268.101562 43.785156 259.269531 C 40.640625 253.480469 40.738281 248.179688 42.507812 243.371094 C 39.363281 246.117188 36.414062 249.257812 33.859375 252.59375 C 27.078125 261.332031 23.640625 269.085938 28.554688 278.507812 C 34.054688 288.8125 45.0625 293.917969 56.070312 291.167969 C 67.175781 288.417969 79.953125 284.789062 90.566406 278.410156 C 107.863281 268.101562 123.6875 254.460938 139.019531 236.890625 L 141.769531 233.652344 L 139.804688 237.382812 C 133.613281 249.160156 128.308594 261.527344 123.882812 274.089844 C 123.394531 278.800781 122.707031 283.511719 122.117188 288.027344 C 120.738281 298.527344 119.265625 309.421875 118.871094 320.21875 C 118.378906 335.824219 124.375 346.035156 136.5625 350.546875 C 148.355469 354.964844 160.9375 350.15625 171.15625 337.296875 C 173.417969 334.453125 175.480469 331.410156 177.347656 328.269531 C 172.238281 331.703125 166.734375 333.46875 161.328125 333.46875 C 158.183594 333.570312 155.234375 333.078125 152.1875 331.996094 Z M 152.1875 331.996094 " fill-opacity="1" fill-rule="nonzero"/><path fill="#e2aaba" d="M 226.488281 187.71875 C 225.800781 189.386719 224.917969 190.957031 224.03125 192.429688 C 223.933594 192.527344 223.835938 192.722656 223.738281 192.824219 C 223.640625 192.921875 223.539062 193.117188 223.441406 193.214844 C 221.769531 195.667969 219.902344 197.730469 217.742188 199.398438 C 217.644531 199.496094 217.445312 199.59375 217.347656 199.691406 C 217.25 199.789062 217.054688 199.890625 216.957031 199.988281 C 213.710938 202.34375 209.878906 203.914062 205.652344 204.503906 C 205.457031 204.503906 205.359375 204.601562 205.160156 204.601562 C 204.964844 204.601562 204.867188 204.601562 204.671875 204.699219 C 204.472656 204.699219 204.375 204.699219 204.179688 204.699219 C 203.984375 204.699219 203.882812 204.699219 203.6875 204.699219 C 199.757812 204.992188 195.433594 204.503906 190.8125 203.226562 C 184.128906 201.363281 178.429688 198.417969 174.007812 194.589844 C 173.910156 194.492188 173.8125 194.394531 173.613281 194.292969 C 173.515625 194.195312 173.417969 194.097656 173.222656 194 C 172.925781 193.707031 172.53125 193.3125 172.238281 193.019531 C 172.140625 192.921875 172.042969 192.824219 171.945312 192.625 C 171.84375 192.527344 171.746094 192.429688 171.550781 192.234375 C 169.878906 190.464844 168.503906 188.601562 167.324219 186.539062 C 164.867188 182.222656 163.785156 177.414062 164.082031 172.503906 C 164.082031 172.210938 164.082031 171.917969 164.179688 171.523438 C 164.179688 171.132812 164.277344 170.640625 164.375 170.246094 C 164.574219 168.972656 164.867188 167.597656 165.261719 166.320312 C 165.554688 165.242188 165.949219 164.164062 166.441406 163.082031 C 166.441406 162.984375 166.539062 162.886719 166.539062 162.789062 C 166.539062 162.691406 166.636719 162.59375 166.636719 162.496094 C 166.734375 162.296875 166.832031 162.101562 166.929688 161.808594 C 167.421875 160.726562 167.914062 159.746094 168.503906 158.765625 C 169.09375 157.78125 169.683594 156.898438 170.371094 156.015625 C 170.664062 155.625 170.960938 155.230469 171.253906 154.839844 C 170.765625 156.703125 170.371094 158.566406 170.273438 160.433594 C 170.273438 160.628906 170.273438 160.824219 170.273438 161.023438 C 170.273438 161.21875 170.273438 161.414062 170.273438 161.609375 C 170.074219 166.421875 171.15625 171.035156 173.613281 175.351562 C 175.382812 178.492188 177.644531 181.242188 180.492188 183.695312 C 180.59375 183.792969 180.691406 183.890625 180.789062 183.988281 C 180.789062 183.988281 180.789062 183.988281 180.886719 184.085938 C 180.984375 184.183594 181.082031 184.285156 181.183594 184.382812 C 181.183594 184.382812 181.183594 184.382812 181.28125 184.480469 C 185.703125 188.109375 191.402344 190.957031 197.792969 192.722656 C 200.050781 193.3125 202.214844 193.707031 204.375 194 C 204.574219 194 204.671875 194 204.867188 194.097656 C 204.867188 194.097656 204.964844 194.097656 204.964844 194.097656 C 205.0625 194.097656 205.261719 194.097656 205.359375 194.097656 C 205.457031 194.097656 205.457031 194.097656 205.554688 194.097656 C 205.75 194.097656 205.949219 194.097656 206.144531 194.097656 C 206.832031 194.097656 207.519531 194.195312 208.308594 194.195312 C 211.058594 194.195312 213.710938 193.804688 216.167969 193.117188 C 216.367188 193.019531 216.5625 193.019531 216.757812 192.921875 C 216.957031 192.824219 217.152344 192.824219 217.347656 192.722656 C 218.824219 192.234375 220.296875 191.644531 221.671875 190.957031 C 221.871094 190.859375 221.96875 190.761719 222.164062 190.761719 C 222.359375 190.664062 222.460938 190.566406 222.558594 190.46875 C 223.738281 189.878906 225.113281 188.796875 226.488281 187.71875 Z M 226.488281 187.71875 " fill-opacity="1" fill-rule="nonzero"/><path fill="#fbd5de" d="M 236.613281 161.609375 C 236.710938 164.75 236.316406 167.992188 235.234375 171.425781 C 235.136719 171.917969 234.941406 172.40625 234.746094 172.898438 C 234.644531 173.09375 234.644531 173.289062 234.546875 173.488281 C 234.449219 173.683594 234.449219 173.878906 234.351562 174.074219 C 233.566406 176.332031 232.582031 178.394531 231.5 180.257812 C 231.402344 180.457031 231.304688 180.554688 231.207031 180.75 C 231.109375 180.945312 231.011719 181.042969 230.910156 181.242188 C 230.320312 182.222656 229.632812 183.105469 228.945312 183.988281 C 228.652344 184.285156 228.453125 184.578125 228.160156 184.871094 C 227.863281 185.167969 227.570312 185.460938 227.375 185.753906 C 225.703125 187.523438 223.738281 188.894531 221.671875 190.074219 C 221.476562 190.171875 221.378906 190.269531 221.183594 190.269531 C 220.984375 190.367188 220.886719 190.464844 220.691406 190.464844 C 219.707031 190.957031 218.625 191.449219 217.546875 191.839844 C 217.347656 191.9375 217.152344 191.9375 216.957031 192.039062 C 216.757812 192.136719 216.5625 192.136719 216.367188 192.234375 C 213.417969 193.117188 210.175781 193.507812 206.734375 193.410156 C 206.539062 193.410156 206.339844 193.410156 206.144531 193.410156 C 205.949219 193.410156 205.75 193.410156 205.554688 193.410156 C 205.457031 193.410156 205.261719 193.410156 205.160156 193.410156 C 204.964844 193.410156 204.867188 193.410156 204.671875 193.410156 C 204.472656 193.410156 204.375 193.410156 204.179688 193.3125 C 202.214844 193.117188 200.148438 192.722656 197.988281 192.136719 C 191.796875 190.464844 186.390625 187.71875 182.066406 184.285156 C 181.96875 184.183594 181.769531 184.085938 181.671875 183.988281 C 181.574219 183.890625 181.476562 183.792969 181.28125 183.695312 C 181.183594 183.597656 180.984375 183.5 180.886719 183.398438 C 178.234375 181.042969 175.972656 178.296875 174.300781 175.351562 C 171.945312 171.132812 170.863281 166.421875 171.15625 161.609375 C 171.15625 161.414062 171.15625 161.21875 171.15625 161.023438 C 171.15625 160.824219 171.15625 160.628906 171.15625 160.433594 C 171.355469 158.765625 171.648438 156.996094 172.140625 155.230469 C 172.335938 154.640625 172.53125 154.054688 172.730469 153.5625 C 172.828125 153.171875 173.023438 152.777344 173.222656 152.285156 C 173.320312 151.992188 173.515625 151.601562 173.613281 151.304688 C 174.203125 149.929688 174.890625 148.558594 175.578125 147.378906 C 175.679688 147.28125 175.777344 147.085938 175.875 146.988281 C 175.972656 146.886719 176.070312 146.691406 176.167969 146.59375 C 178.136719 143.453125 180.59375 140.902344 183.441406 138.839844 C 183.539062 138.839844 183.539062 138.742188 183.640625 138.742188 C 183.738281 138.644531 183.835938 138.644531 183.933594 138.546875 C 184.03125 138.546875 184.03125 138.449219 184.128906 138.449219 C 184.226562 138.347656 184.328125 138.347656 184.425781 138.25 C 184.523438 138.152344 184.621094 138.152344 184.621094 138.054688 C 191.5 133.738281 200.347656 132.558594 210.074219 135.207031 C 212.632812 135.894531 214.988281 136.777344 217.25 137.664062 C 217.445312 137.761719 217.546875 137.761719 217.742188 137.859375 C 217.9375 137.957031 218.035156 137.957031 218.234375 138.054688 C 218.527344 138.25 218.921875 138.347656 219.214844 138.546875 C 219.3125 138.644531 219.511719 138.644531 219.609375 138.742188 C 219.804688 138.839844 219.902344 138.9375 220.003906 138.9375 C 220.492188 139.234375 221.082031 139.429688 221.574219 139.722656 C 221.671875 139.820312 221.871094 139.917969 221.96875 139.917969 C 222.066406 140.019531 222.261719 140.117188 222.359375 140.214844 C 227.273438 143.0625 231.007812 146.691406 233.367188 150.914062 C 234.351562 152.679688 235.136719 154.542969 235.628906 156.410156 C 235.628906 156.605469 235.726562 156.703125 235.726562 156.898438 C 235.726562 157.097656 235.824219 157.195312 235.824219 157.390625 C 236.121094 158.566406 236.21875 159.746094 236.316406 160.921875 C 236.316406 161.121094 236.316406 161.21875 236.316406 161.414062 C 236.613281 161.21875 236.613281 161.414062 236.613281 161.609375 Z M 236.613281 161.609375 " fill-opacity="1" fill-rule="nonzero"/><path fill="#4b412e" d="M 347.078125 184.675781 C 339.019531 179.671875 330.074219 175.84375 323.589844 173.09375 C 321.132812 172.015625 319.070312 171.132812 317.496094 170.347656 L 317.398438 170.347656 C 299.609375 166.027344 284.277344 163.179688 270.320312 161.710938 C 289.976562 152.386719 305.703125 139.527344 318.378906 122.644531 C 319.855469 120.683594 321.230469 118.71875 322.410156 116.660156 C 326.636719 112.4375 330.664062 107.824219 334.402344 102.917969 C 343.34375 91.042969 347.765625 77.890625 347.375 63.953125 C 347.175781 56.101562 343.933594 49.230469 338.429688 45.207031 C 333.515625 41.574219 327.128906 40.496094 320.542969 42.261719 C 309.929688 45.207031 300.101562 50.210938 291.355469 56.984375 C 272.089844 72.195312 256.367188 88.390625 243.6875 106.058594 C 241.230469 108.707031 238.871094 111.457031 236.613281 114.203125 C 250.765625 89.273438 257.546875 63.953125 257.152344 37.355469 C 256.855469 30.582031 255.285156 24.003906 252.632812 17.722656 C 247.816406 6.730469 238.28125 0.644531 224.816406 0.351562 C 213.8125 0.15625 206.046875 5.75 201.722656 17.136719 L 201.328125 18.117188 C 200.9375 19.195312 200.542969 20.179688 200.148438 21.257812 C 193.664062 23.515625 188.652344 28.816406 185.605469 36.960938 L 185.113281 38.238281 C 182.066406 46.382812 179.019531 54.726562 176.660156 63.265625 C 172.828125 52.175781 167.03125 41.476562 158.183594 31.660156 C 153.464844 26.460938 147.570312 22.335938 143.148438 19.292969 C 141.476562 18.117188 140.003906 17.136719 138.921875 16.25 L 138.726562 16.152344 C 127.914062 13.109375 118.578125 13.699219 111.796875 17.921875 C 106.097656 21.453125 102.261719 27.441406 100.789062 35.195312 C 98.921875 35.785156 97.25 36.570312 95.679688 37.550781 C 89.976562 41.082031 86.242188 47.070312 84.769531 54.824219 C 81.722656 71.3125 85.0625 87.507812 95.089844 104.292969 C 78.183594 102.625 61.871094 102.132812 45.75 108.90625 C 34.253906 113.617188 27.078125 120.878906 25.40625 129.417969 C 25.308594 129.808594 25.308594 130.203125 25.210938 130.597656 C 16.367188 135.308594 10.765625 141.6875 9.289062 149.144531 C 7.617188 157.683594 11.648438 167.207031 20.492188 175.84375 C 34.941406 189.976562 53.910156 197.535156 76.808594 198.121094 C 81.917969 198.320312 86.929688 198.320312 92.042969 198.121094 C 80.050781 205.484375 68.355469 213.628906 57.546875 223.050781 C 54.300781 225.898438 51.453125 229.039062 48.796875 232.476562 C 46.539062 235.320312 44.472656 238.265625 43 241.40625 C 42.507812 241.800781 42.015625 242.289062 41.425781 242.683594 C 38.183594 245.527344 35.234375 248.667969 32.582031 252.105469 C 26.488281 259.957031 21.671875 268.59375 27.273438 278.996094 C 32.976562 289.695312 44.472656 294.996094 55.972656 292.246094 C 67.175781 289.5 80.050781 285.769531 90.664062 279.292969 C 107.078125 269.476562 122.214844 256.816406 136.757812 240.523438 C 131.355469 251.320312 126.539062 262.507812 122.605469 273.894531 L 122.605469 273.992188 C 122.117188 278.703125 121.425781 283.414062 120.835938 288.027344 C 119.460938 298.527344 117.988281 309.421875 117.59375 320.316406 C 117.101562 336.414062 123.292969 346.917969 135.875 351.628906 C 148.0625 356.242188 161.132812 351.234375 171.648438 337.984375 C 174.402344 334.550781 176.757812 330.917969 178.921875 327.089844 C 181.96875 324.734375 184.917969 321.886719 187.667969 318.355469 C 193.269531 311.289062 197.59375 303.4375 200.738281 294.40625 C 205.652344 308.636719 211.84375 322.378906 219.3125 335.53125 C 222.359375 340.832031 226.097656 345.640625 230.421875 349.859375 C 237.59375 356.929688 245.160156 360.65625 252.238281 360.65625 C 253.910156 360.65625 255.578125 360.460938 257.25 359.96875 C 265.308594 357.8125 271.992188 350.546875 276.613281 339.066406 C 284.769531 335.335938 291.355469 325.816406 295.1875 311.878906 C 298.726562 298.136719 295.972656 282.136719 287.519531 266.335938 C 292.828125 267.613281 298.234375 268.59375 303.640625 269.28125 C 325.75 272.226562 340.886719 264.078125 346.683594 246.3125 C 355.234375 242.09375 361.035156 234.339844 363.6875 223.152344 C 367.617188 207.445312 361.625 193.707031 347.078125 184.675781 Z M 347.175781 245.136719 C 346.980469 245.234375 346.785156 245.332031 346.585938 245.429688 C 346.390625 245.527344 346.195312 245.625 345.996094 245.726562 C 339.117188 249.0625 330.371094 250.140625 319.953125 248.765625 C 298.824219 246.019531 278.085938 238.855469 256.660156 226.878906 C 248.996094 218.4375 241.132812 210.292969 233.367188 202.246094 C 230.421875 199.203125 227.570312 196.160156 224.621094 193.117188 C 225.996094 191.054688 227.078125 188.699219 228.0625 186.148438 C 229.535156 184.675781 230.8125 183.007812 231.992188 181.042969 C 232.089844 180.847656 232.1875 180.75 232.289062 180.554688 C 232.386719 180.355469 232.484375 180.257812 232.582031 180.0625 C 233.664062 178.101562 234.644531 175.941406 235.53125 173.585938 C 235.628906 173.390625 235.628906 173.191406 235.726562 172.996094 C 235.824219 172.800781 235.824219 172.605469 235.921875 172.40625 C 236.023438 172.113281 236.121094 171.820312 236.21875 171.523438 C 237.203125 167.992188 237.691406 164.652344 237.59375 161.414062 C 240.835938 161.21875 243.984375 161.121094 247.226562 161.121094 C 253.417969 161.121094 259.804688 161.414062 266.488281 162.003906 C 266.785156 162.003906 267.078125 162.101562 267.375 162.101562 C 267.765625 162.101562 268.0625 162.199219 268.453125 162.199219 C 282.902344 163.671875 298.625 166.519531 317.003906 171.03125 C 318.675781 171.820312 320.738281 172.703125 323.097656 173.78125 C 329.585938 176.53125 338.429688 180.355469 346.488281 185.363281 C 360.738281 194.195312 366.539062 207.542969 362.804688 223.050781 C 360.347656 233.554688 355.039062 240.914062 347.175781 245.136719 Z M 303.933594 268.496094 C 298.234375 267.710938 292.632812 266.730469 287.03125 265.355469 C 284.277344 260.445312 281.035156 255.539062 277.203125 250.730469 C 271.304688 243.371094 265.113281 236.203125 258.726562 229.136719 C 279.363281 240.328125 299.3125 247.097656 319.855469 249.75 C 322.902344 250.140625 325.75 250.335938 328.503906 250.335938 C 334.988281 250.335938 340.691406 249.257812 345.605469 247 C 339.707031 263.6875 325.0625 271.34375 303.933594 268.496094 Z M 277.300781 337.886719 C 277.101562 337.984375 276.90625 338.082031 276.613281 338.28125 C 276.414062 338.378906 276.21875 338.476562 276.023438 338.574219 C 275.136719 338.964844 274.253906 339.261719 273.269531 339.554688 C 265.210938 341.714844 255.972656 338.179688 247.421875 329.640625 C 243.097656 325.421875 239.460938 320.710938 236.414062 315.507812 C 221.082031 288.714844 211.253906 258.976562 206.832031 226.878906 C 206.636719 223.9375 206.539062 220.992188 206.339844 218.046875 C 206.144531 213.925781 205.851562 209.800781 205.652344 205.582031 C 209.976562 204.894531 214.007812 203.324219 217.347656 200.871094 C 217.445312 200.773438 217.644531 200.675781 217.742188 200.574219 C 217.839844 200.476562 218.035156 200.378906 218.136719 200.28125 C 220.296875 198.613281 222.261719 196.453125 224.03125 194 C 226.882812 197.042969 229.730469 199.988281 232.582031 202.933594 C 239.660156 210.292969 246.734375 217.753906 253.8125 225.308594 C 254.203125 225.800781 254.597656 226.191406 255.089844 226.683594 C 255.382812 227.078125 255.679688 227.371094 256.070312 227.761719 C 263.148438 235.417969 270.027344 243.371094 276.414062 251.417969 C 279.953125 255.933594 283.097656 260.445312 285.652344 265.058594 C 285.75 265.257812 285.851562 265.453125 285.949219 265.648438 C 286.046875 265.84375 286.144531 266.042969 286.242188 266.238281 C 294.890625 282.039062 297.839844 298.039062 294.300781 311.777344 C 290.765625 324.832031 284.867188 333.960938 277.300781 337.886719 Z M 257.25 359.183594 C 249.191406 361.34375 239.953125 357.8125 231.402344 349.273438 C 227.078125 345.050781 223.441406 340.339844 220.492188 335.140625 C 212.828125 321.59375 206.539062 307.558594 201.625 292.933594 C 205.0625 282.628906 206.929688 270.851562 207.421875 257.304688 C 207.71875 249.945312 207.617188 242.78125 207.324219 235.8125 C 212.238281 264.667969 221.769531 291.460938 235.628906 315.902344 C 238.675781 321.203125 242.507812 326.011719 246.832031 330.230469 C 253.910156 337.296875 261.476562 341.027344 268.652344 341.027344 C 270.320312 341.027344 272.089844 340.832031 273.664062 340.339844 C 274.351562 340.144531 274.941406 339.949219 275.628906 339.75 C 271.109375 350.351562 264.816406 357.125 257.25 359.183594 Z M 180.394531 324.832031 C 180.101562 325.128906 179.707031 325.421875 179.414062 325.617188 C 179.117188 325.914062 178.726562 326.109375 178.429688 326.304688 C 170.273438 332.390625 161.230469 334.15625 152.582031 330.917969 C 140.492188 326.304688 134.5 316.097656 134.988281 300.492188 C 135.285156 289.792969 136.757812 278.898438 138.234375 268.300781 C 138.824219 263.6875 139.511719 258.976562 140.003906 254.363281 C 144.917969 240.328125 150.125 228.253906 155.824219 217.753906 C 161.722656 210.882812 167.617188 203.421875 173.417969 195.375 C 177.9375 199.300781 183.835938 202.34375 190.617188 204.207031 C 194.253906 205.1875 197.792969 205.679688 201.132812 205.679688 C 202.015625 205.679688 202.902344 205.679688 203.785156 205.582031 C 203.984375 205.582031 204.082031 205.582031 204.277344 205.484375 C 204.472656 205.484375 204.574219 205.484375 204.769531 205.386719 C 204.964844 209.605469 205.160156 213.726562 205.457031 217.851562 C 205.457031 218.636719 205.554688 219.519531 205.554688 220.304688 C 205.652344 222.464844 205.75 224.621094 205.949219 226.78125 C 206.441406 236.597656 206.832031 246.609375 206.441406 257.207031 C 205.949219 270.164062 204.179688 281.351562 201.132812 291.265625 C 201.035156 291.5625 200.9375 291.757812 200.835938 292.050781 C 200.738281 292.347656 200.640625 292.542969 200.542969 292.835938 C 197.398438 302.160156 192.976562 310.40625 187.273438 317.667969 C 185.015625 320.515625 182.753906 322.871094 180.394531 324.832031 Z M 136.5625 350.644531 C 124.375 346.132812 118.480469 335.925781 118.871094 320.316406 C 119.167969 309.523438 120.640625 298.628906 122.117188 288.125 C 122.703125 283.511719 123.394531 278.800781 123.882812 274.1875 C 128.207031 261.625 133.613281 249.257812 139.804688 237.480469 L 141.769531 233.75 L 139.019531 236.988281 C 123.785156 254.558594 107.863281 268.199219 90.566406 278.507812 C 80.050781 284.886719 67.273438 288.617188 56.070312 291.265625 C 45.0625 294.015625 33.957031 288.910156 28.550781 278.605469 C 23.539062 269.183594 27.078125 261.429688 33.859375 252.695312 C 36.414062 249.355469 39.363281 246.214844 42.507812 243.46875 C 40.738281 248.277344 40.640625 253.578125 43.785156 259.367188 C 48.601562 268.101562 57.152344 273.304688 66.390625 273.304688 C 68.355469 273.304688 70.320312 273.109375 72.386719 272.617188 C 83.6875 269.871094 96.660156 266.140625 107.175781 259.761719 C 123.492188 249.945312 138.625 237.285156 153.074219 220.992188 C 148.0625 230.707031 143.441406 241.699219 139.019531 254.265625 L 139.019531 254.363281 C 138.527344 259.074219 137.839844 263.785156 137.25 268.398438 C 135.875 278.996094 134.402344 289.890625 134.007812 300.6875 C 133.515625 316.785156 139.609375 327.285156 152.1875 332.097656 C 155.136719 333.175781 158.183594 333.765625 161.230469 333.765625 C 166.734375 333.765625 172.140625 332 177.25 328.5625 C 175.382812 331.703125 173.320312 334.648438 171.058594 337.59375 C 160.9375 350.253906 148.355469 355.160156 136.5625 350.644531 Z M 45.261719 239.738281 C 46.539062 237.480469 48.109375 235.222656 49.878906 233.0625 C 52.433594 229.726562 55.285156 226.585938 58.429688 223.835938 C 69.632812 214.121094 81.722656 205.679688 94.300781 198.121094 C 94.597656 197.925781 94.890625 197.730469 95.1875 197.632812 C 95.480469 197.433594 95.777344 197.238281 96.070312 197.140625 C 108.652344 189.679688 121.625 183.105469 134.597656 177.117188 C 134.988281 176.921875 135.480469 176.726562 135.875 176.53125 C 136.269531 176.332031 136.660156 176.136719 137.152344 175.941406 C 144.226562 172.703125 151.304688 169.660156 158.183594 166.714844 C 158.378906 166.617188 158.578125 166.519531 158.773438 166.421875 C 158.96875 166.320312 159.167969 166.222656 159.363281 166.125 C 159.558594 166.027344 159.757812 165.929688 159.953125 165.929688 C 161.722656 165.144531 163.492188 164.457031 165.160156 163.769531 C 164.867188 164.554688 164.574219 165.339844 164.375 166.222656 C 163.785156 168.1875 163.394531 170.246094 163.292969 172.210938 C 163.292969 172.503906 163.292969 172.703125 163.195312 172.996094 C 163.195312 173.191406 163.195312 173.488281 163.195312 173.683594 C 163.097656 178.394531 164.179688 182.910156 166.539062 187.128906 C 167.71875 189.289062 169.191406 191.253906 170.960938 193.117188 C 171.058594 193.214844 171.15625 193.3125 171.355469 193.507812 C 171.453125 193.609375 171.550781 193.707031 171.648438 193.902344 C 171.945312 194.195312 172.335938 194.589844 172.730469 194.882812 C 167.914062 201.558594 163.195312 207.742188 158.28125 213.53125 C 157.691406 214.21875 157.101562 214.90625 156.613281 215.59375 C 156.121094 216.183594 155.628906 216.769531 155.039062 217.359375 C 139.707031 234.929688 123.882812 248.570312 106.683594 258.976562 C 96.269531 265.257812 83.394531 268.886719 72.089844 271.636719 C 61.082031 274.382812 50.273438 269.378906 44.671875 258.875 C 41.328125 252.695312 41.917969 247.195312 44.179688 241.996094 C 44.375 241.601562 44.472656 241.308594 44.671875 240.914062 C 44.867188 240.523438 45.0625 240.128906 45.261719 239.738281 Z M 10.46875 149.242188 C 11.84375 142.375 17.054688 136.191406 25.308594 131.773438 C 24.71875 139.625 28.75 148.164062 36.808594 156.113281 C 51.253906 170.347656 70.222656 177.902344 93.222656 178.492188 C 95.480469 178.589844 97.742188 178.589844 100.003906 178.589844 C 110.519531 178.589844 121.328125 178 131.84375 177.316406 C 119.167969 183.203125 106.390625 189.78125 94.007812 197.140625 C 88.40625 197.335938 82.707031 197.335938 77.101562 197.140625 C 54.402344 196.453125 35.726562 189.09375 21.378906 175.058594 C 12.730469 166.617188 8.898438 157.488281 10.46875 149.242188 Z M 26.488281 130.007812 C 26.488281 129.808594 26.488281 129.710938 26.585938 129.515625 C 28.257812 121.273438 35.039062 114.402344 46.339844 109.691406 C 56.464844 105.46875 66.683594 104.09375 77.101562 104.09375 C 83.292969 104.09375 89.585938 104.585938 95.972656 105.273438 C 96.167969 105.273438 96.367188 105.273438 96.5625 105.371094 C 96.757812 105.371094 96.957031 105.371094 97.152344 105.46875 C 99.707031 105.765625 102.261719 106.058594 104.917969 106.351562 L 106.683594 106.550781 L 150.8125 128.4375 C 156.21875 132.953125 161.820312 137.269531 167.324219 141.390625 C 167.519531 141.492188 167.617188 141.6875 167.816406 141.785156 C 168.011719 141.882812 168.109375 142.078125 168.308594 142.175781 C 168.40625 142.277344 168.40625 142.277344 168.503906 142.375 C 168.699219 142.472656 168.796875 142.570312 168.996094 142.765625 C 169.191406 142.863281 169.289062 142.960938 169.488281 143.160156 C 170.863281 144.238281 172.238281 145.21875 173.710938 146.203125 C 173.910156 146.398438 174.203125 146.496094 174.402344 146.691406 C 174.007812 148.164062 173.222656 149.832031 172.042969 151.699219 C 171.15625 152.972656 170.371094 154.347656 169.683594 155.820312 C 169.386719 156.210938 169.09375 156.703125 168.796875 157.097656 C 168.601562 157.390625 168.40625 157.78125 168.109375 158.078125 C 167.226562 159.550781 166.441406 161.121094 165.75 162.789062 C 163.492188 163.769531 161.230469 164.652344 158.96875 165.636719 C 158.871094 165.734375 158.773438 165.734375 158.578125 165.832031 C 150.617188 169.167969 142.558594 172.703125 134.402344 176.429688 C 120.835938 177.316406 106.785156 178.199219 93.320312 177.804688 C 70.519531 177.117188 51.746094 169.757812 37.496094 155.625 C 29.339844 147.574219 25.507812 139.234375 26.390625 131.480469 C 26.390625 131.28125 26.488281 131.085938 26.488281 130.890625 C 26.390625 130.398438 26.488281 130.203125 26.488281 130.007812 Z M 96.367188 38.335938 C 97.742188 37.453125 99.214844 36.765625 100.789062 36.273438 C 97.742188 54.234375 102.460938 72 115.234375 90.550781 C 124.472656 104.09375 135.777344 115.480469 147.667969 125.6875 L 106.980469 105.566406 L 105.015625 105.273438 C 102.164062 104.980469 99.3125 104.683594 96.5625 104.390625 C 86.339844 87.605469 82.902344 71.3125 85.949219 54.921875 C 87.324219 47.464844 90.960938 41.671875 96.367188 38.335938 Z M 101.96875 35.292969 C 101.96875 35.097656 102.066406 35 102.066406 34.800781 C 103.539062 27.539062 107.175781 21.945312 112.484375 18.605469 C 116.316406 16.25 120.9375 15.074219 126.144531 15.074219 C 129.976562 15.074219 134.105469 15.664062 138.527344 16.9375 C 139.609375 17.820312 141.082031 18.804688 142.753906 19.980469 C 147.078125 23.023438 152.976562 27.144531 157.59375 32.25 C 166.636719 42.359375 172.53125 53.351562 176.367188 64.933594 C 176.464844 65.226562 176.5625 65.523438 176.660156 65.816406 C 176.757812 66.113281 176.859375 66.40625 176.957031 66.699219 C 183.246094 87.117188 183.34375 109.101562 183.441406 130.597656 C 183.441406 132.851562 183.441406 135.109375 183.441406 137.367188 C 180.394531 139.429688 177.644531 142.175781 175.480469 145.515625 C 175.382812 145.613281 175.285156 145.710938 175.285156 145.90625 C 175.1875 145.808594 175.089844 145.808594 174.988281 145.710938 C 174.890625 145.613281 174.695312 145.515625 174.5 145.417969 C 174.402344 145.316406 174.300781 145.316406 174.203125 145.21875 C 172.632812 144.042969 171.058594 142.960938 169.488281 141.785156 C 169.289062 141.6875 169.191406 141.589844 168.996094 141.390625 C 168.796875 141.292969 168.699219 141.195312 168.503906 141 C 168.40625 140.902344 168.308594 140.902344 168.207031 140.804688 C 168.011719 140.707031 167.914062 140.507812 167.71875 140.410156 C 167.519531 140.3125 167.421875 140.117188 167.226562 140.019531 C 163 136.878906 158.773438 133.636719 154.644531 130.300781 C 154.054688 129.8125 153.566406 129.417969 152.976562 128.925781 C 152.386719 128.4375 151.894531 128.042969 151.304688 127.554688 C 138.332031 116.757812 126.046875 104.683594 116.023438 90.058594 C 103.148438 71.214844 98.625 54.039062 101.871094 35.882812 C 101.871094 35.683594 101.871094 35.488281 101.96875 35.292969 Z M 186.683594 37.355469 C 189.535156 29.699219 193.957031 24.691406 199.855469 22.433594 C 195.335938 34.898438 190.910156 47.757812 189.242188 60.8125 C 186.882812 79.65625 185.898438 98.796875 184.816406 117.246094 C 184.621094 120.191406 184.523438 123.234375 184.328125 126.179688 C 184.226562 105.46875 183.738281 84.367188 177.347656 64.835938 C 179.707031 55.902344 182.949219 47.070312 186.195312 38.53125 Z M 201.425781 20.964844 C 201.722656 20.179688 202.015625 19.390625 202.3125 18.507812 L 202.703125 17.527344 C 206.832031 6.535156 214.300781 1.039062 224.816406 1.332031 C 233.859375 1.53125 245.949219 4.671875 251.648438 18.117188 C 254.300781 24.203125 255.875 30.679688 256.167969 37.355469 C 256.5625 65.816406 248.699219 92.90625 232.289062 119.601562 C 231.207031 121.371094 230.125 123.039062 228.945312 124.804688 C 227.175781 127.554688 225.308594 130.203125 223.34375 132.953125 C 222.261719 134.421875 221.082031 135.992188 220.003906 137.464844 C 220.003906 137.464844 220.003906 137.464844 219.902344 137.464844 C 219.609375 137.269531 219.214844 137.171875 218.921875 136.976562 C 218.726562 136.878906 218.625 136.878906 218.429688 136.777344 C 218.234375 136.679688 218.136719 136.679688 217.9375 136.582031 C 215.679688 135.601562 213.121094 134.71875 210.46875 134.03125 C 200.640625 131.382812 191.796875 132.460938 184.816406 136.582031 C 185.210938 130.203125 185.605469 123.726562 185.898438 117.445312 C 186.882812 98.992188 187.964844 79.851562 190.320312 61.105469 C 191.992188 47.953125 196.511719 34.898438 201.132812 22.140625 C 201.230469 21.945312 201.230469 21.75 201.328125 21.550781 C 201.328125 21.257812 201.328125 21.0625 201.425781 20.964844 Z M 249.585938 99.582031 C 261.183594 84.660156 275.136719 70.824219 291.84375 57.671875 C 300.492188 50.996094 310.125 46.089844 320.640625 43.144531 C 326.929688 41.476562 333.023438 42.457031 337.742188 45.894531 C 342.949219 49.820312 346.097656 56.296875 346.292969 63.855469 C 346.683594 77.59375 342.359375 90.550781 333.515625 102.230469 C 330.566406 106.058594 327.519531 109.691406 324.277344 113.125 C 323.882812 113.617188 323.394531 114.007812 322.902344 114.5 C 322.410156 114.988281 322.015625 115.480469 321.527344 115.875 C 300.789062 136.484375 273.367188 149.441406 236.710938 155.917969 C 236.21875 153.855469 235.433594 151.992188 234.351562 150.128906 C 231.894531 145.808594 228.0625 142.078125 223.050781 139.132812 C 226.882812 133.738281 230.421875 128.632812 233.664062 123.136719 C 236.90625 117.445312 240.542969 111.949219 244.375 106.550781 C 245.261719 105.273438 246.144531 104.09375 247.128906 102.820312 C 247.914062 101.738281 248.796875 100.660156 249.585938 99.582031 Z M 234.84375 172.800781 C 234.746094 172.996094 234.746094 173.191406 234.644531 173.390625 C 234.546875 173.585938 234.546875 173.78125 234.449219 173.976562 C 233.664062 176.234375 232.679688 178.296875 231.597656 180.160156 C 231.5 180.355469 231.402344 180.457031 231.304688 180.652344 C 231.207031 180.847656 231.109375 180.945312 231.007812 181.144531 C 230.421875 182.125 229.730469 183.007812 229.042969 183.890625 C 228.75 184.183594 228.554688 184.480469 228.257812 184.773438 C 227.964844 185.070312 227.667969 185.363281 227.472656 185.65625 C 225.800781 187.425781 223.835938 188.796875 221.769531 189.976562 C 221.574219 190.074219 221.476562 190.171875 221.28125 190.171875 C 221.082031 190.269531 220.984375 190.367188 220.789062 190.367188 C 219.804688 190.859375 218.726562 191.351562 217.644531 191.742188 C 217.445312 191.839844 217.25 191.839844 217.054688 191.9375 C 216.855469 192.039062 216.660156 192.039062 216.464844 192.136719 C 213.515625 193.019531 210.273438 193.410156 206.832031 193.3125 C 206.636719 193.3125 206.441406 193.3125 206.242188 193.3125 C 206.046875 193.3125 205.851562 193.3125 205.652344 193.3125 C 205.554688 193.3125 205.359375 193.3125 205.261719 193.3125 C 205.0625 193.3125 204.964844 193.3125 204.769531 193.3125 C 204.574219 193.3125 204.472656 193.3125 204.277344 193.214844 C 202.3125 193.019531 200.25 192.625 198.085938 192.039062 C 191.894531 190.367188 186.488281 187.621094 182.164062 184.183594 C 182.066406 184.085938 181.871094 183.988281 181.769531 183.890625 C 181.671875 183.792969 181.574219 183.695312 181.378906 183.597656 C 181.28125 183.5 181.082031 183.398438 180.984375 183.300781 C 178.332031 180.945312 176.070312 178.199219 174.402344 175.253906 C 172.042969 171.03125 170.960938 166.320312 171.253906 161.511719 C 171.253906 161.316406 171.253906 161.121094 171.253906 160.921875 C 171.253906 160.726562 171.253906 160.53125 171.253906 160.335938 C 171.453125 158.667969 171.746094 156.898438 172.238281 155.132812 C 172.433594 154.542969 172.632812 153.957031 172.828125 153.464844 C 172.925781 153.070312 173.121094 152.679688 173.320312 152.1875 C 173.417969 151.894531 173.613281 151.5 173.710938 151.207031 C 174.300781 149.832031 174.988281 148.457031 175.679688 147.28125 C 175.777344 147.183594 175.875 146.988281 175.972656 146.886719 C 176.070312 146.789062 176.167969 146.59375 176.269531 146.496094 C 178.234375 143.355469 180.691406 140.804688 183.539062 138.742188 C 183.640625 138.742188 183.640625 138.644531 183.738281 138.644531 C 183.835938 138.546875 183.933594 138.546875 184.03125 138.449219 C 184.128906 138.449219 184.128906 138.347656 184.226562 138.347656 C 184.328125 138.25 184.425781 138.25 184.523438 138.152344 C 184.621094 138.054688 184.71875 138.054688 184.71875 137.957031 C 191.597656 133.636719 200.445312 132.460938 210.175781 135.109375 C 212.730469 135.796875 215.089844 136.679688 217.347656 137.5625 C 217.546875 137.664062 217.644531 137.664062 217.839844 137.761719 C 218.035156 137.859375 218.136719 137.859375 218.332031 137.957031 C 218.625 138.152344 219.019531 138.25 219.3125 138.449219 C 219.414062 138.546875 219.609375 138.546875 219.707031 138.644531 C 219.902344 138.742188 220.003906 138.839844 220.101562 138.839844 C 220.59375 139.132812 221.183594 139.332031 221.671875 139.625 C 221.769531 139.722656 221.96875 139.820312 222.066406 139.820312 C 222.164062 139.917969 222.359375 140.019531 222.460938 140.117188 C 227.375 142.960938 231.109375 146.59375 233.464844 150.8125 C 234.449219 152.582031 235.234375 154.445312 235.726562 156.3125 C 235.726562 156.507812 235.824219 156.605469 235.824219 156.800781 C 235.824219 156.996094 235.921875 157.097656 235.921875 157.292969 C 236.21875 158.46875 236.316406 159.648438 236.414062 160.824219 C 236.414062 161.023438 236.414062 161.121094 236.414062 161.316406 C 236.414062 161.511719 236.414062 161.609375 236.414062 161.808594 C 236.511719 164.949219 236.121094 168.1875 235.039062 171.621094 C 235.136719 171.917969 234.941406 172.308594 234.84375 172.800781 Z M 223.738281 192.824219 C 223.640625 192.921875 223.539062 193.117188 223.441406 193.214844 C 221.769531 195.667969 219.902344 197.730469 217.742188 199.398438 C 217.644531 199.496094 217.445312 199.59375 217.347656 199.691406 C 217.25 199.789062 217.054688 199.890625 216.957031 199.988281 C 213.710938 202.34375 209.878906 203.914062 205.652344 204.503906 C 205.457031 204.503906 205.359375 204.601562 205.160156 204.601562 C 204.964844 204.601562 204.867188 204.601562 204.671875 204.699219 C 204.472656 204.699219 204.375 204.699219 204.179688 204.699219 C 203.984375 204.699219 203.882812 204.699219 203.6875 204.699219 C 199.757812 204.992188 195.433594 204.503906 190.8125 203.226562 C 184.128906 201.363281 178.429688 198.417969 174.007812 194.589844 C 173.910156 194.492188 173.8125 194.394531 173.613281 194.292969 C 173.515625 194.195312 173.417969 194.097656 173.222656 194 C 172.925781 193.707031 172.53125 193.3125 172.238281 193.019531 C 172.140625 192.921875 172.042969 192.824219 171.945312 192.625 C 171.84375 192.527344 171.746094 192.429688 171.550781 192.234375 C 169.878906 190.46875 168.503906 188.601562 167.324219 186.539062 C 164.867188 182.222656 163.785156 177.414062 164.082031 172.503906 C 164.082031 172.210938 164.082031 171.917969 164.179688 171.523438 C 164.179688 171.132812 164.277344 170.640625 164.375 170.25 C 164.574219 168.972656 164.867188 167.597656 165.261719 166.320312 C 165.554688 165.242188 165.949219 164.164062 166.441406 163.082031 C 166.441406 162.984375 166.539062 162.886719 166.539062 162.789062 C 166.539062 162.691406 166.636719 162.59375 166.636719 162.496094 C 166.734375 162.296875 166.832031 162.101562 166.929688 161.808594 C 167.421875 160.726562 167.914062 159.746094 168.503906 158.765625 C 169.09375 157.78125 169.683594 156.898438 170.371094 156.015625 C 170.664062 155.625 170.960938 155.230469 171.253906 154.839844 C 170.765625 156.703125 170.371094 158.566406 170.273438 160.433594 C 170.273438 160.628906 170.273438 160.824219 170.273438 161.023438 C 170.273438 161.21875 170.273438 161.414062 170.273438 161.609375 C 170.074219 166.421875 171.15625 171.035156 173.613281 175.351562 C 175.382812 178.492188 177.644531 181.242188 180.492188 183.695312 C 180.59375 183.792969 180.691406 183.890625 180.789062 183.988281 C 180.789062 183.988281 180.789062 183.988281 180.886719 184.085938 C 180.984375 184.183594 181.082031 184.285156 181.183594 184.382812 C 181.183594 184.382812 181.183594 184.382812 181.28125 184.480469 C 185.703125 188.109375 191.402344 190.957031 197.792969 192.722656 C 200.050781 193.3125 202.214844 193.707031 204.375 194 C 204.574219 194 204.671875 194 204.867188 194.097656 C 204.867188 194.097656 204.964844 194.097656 204.964844 194.097656 C 205.0625 194.097656 205.261719 194.097656 205.359375 194.097656 C 205.457031 194.097656 205.457031 194.097656 205.554688 194.097656 C 205.75 194.097656 205.949219 194.097656 206.144531 194.097656 C 206.832031 194.097656 207.519531 194.195312 208.308594 194.195312 C 211.058594 194.195312 213.710938 193.804688 216.167969 193.117188 C 216.367188 193.019531 216.5625 193.019531 216.757812 192.921875 C 216.957031 192.824219 217.152344 192.824219 217.347656 192.722656 C 218.824219 192.234375 220.296875 191.644531 221.671875 190.957031 C 221.871094 190.859375 221.96875 190.761719 222.164062 190.761719 C 222.359375 190.664062 222.460938 190.566406 222.558594 190.46875 C 224.03125 189.582031 225.40625 188.601562 226.683594 187.523438 C 225.996094 189.191406 225.113281 190.761719 224.226562 192.234375 C 223.933594 192.527344 223.835938 192.722656 223.738281 192.824219 Z M 237.496094 160.53125 C 237.398438 159.253906 237.203125 158.078125 237.003906 156.898438 C 272.089844 150.617188 298.824219 138.546875 319.265625 119.503906 C 318.675781 120.289062 318.085938 121.074219 317.496094 121.859375 C 304.523438 138.9375 288.503906 151.894531 268.355469 161.316406 C 257.445312 160.335938 247.421875 160.039062 237.496094 160.53125 Z M 232.878906 122.644531 C 229.730469 128.042969 226.097656 133.246094 222.261719 138.644531 C 221.769531 138.347656 221.28125 138.152344 220.789062 137.859375 C 225.308594 131.96875 229.339844 126.082031 233.074219 120.191406 C 235.039062 117.640625 237.003906 115.1875 239.167969 112.734375 C 236.90625 115.972656 234.84375 119.308594 232.878906 122.644531 Z M 232.878906 122.644531 " fill-opacity="1" fill-rule="nonzero"/></svg>