<svg xmlns="http://www.w3.org/2000/svg" xmlns:xlink="http://www.w3.org/1999/xlink" width="500" zoomAndPan="magnify" viewBox="0 0 375 374.999991" height="500" preserveAspectRatio="xMidYMid meet" version="1.0"><defs><clipPath id="4610292e17"><path d="M 25.910156 0 L 349.160156 0 L 349.160156 375 L 25.910156 375 Z M 25.910156 0 " clip-rule="nonzero"/></clipPath><clipPath id="7320be2e78"><path d="M 25.910156 23 L 349.160156 23 L 349.160156 359 L 25.910156 359 Z M 25.910156 23 " clip-rule="nonzero"/></clipPath></defs><g clip-path="url(#4610292e17)"><path fill="#c05a7d" d="M 349.160156 134.460938 L 349.160156 225.632812 L 338.457031 225.632812 C 334.796875 225.632812 331.046875 225.726562 327.390625 225.542969 C 325.652344 225.453125 324.828125 225.910156 324.554688 227.28125 C 324.554688 228.285156 324.554688 229.199219 324.554688 230.207031 L 324.554688 232.949219 C 324.644531 237.523438 324.554688 242.09375 324.554688 246.667969 L 324.554688 250.417969 L 299.949219 250.417969 C 299.859375 251.421875 299.859375 252.246094 299.765625 253.070312 C 299.765625 253.984375 299.765625 254.898438 299.859375 255.8125 C 299.859375 256.269531 299.859375 256.636719 299.765625 257 C 299.765625 262.121094 299.675781 267.152344 299.859375 272.273438 C 299.859375 274.925781 298.941406 275.65625 296.472656 275.566406 L 274.796875 275.566406 L 274.796875 300.347656 L 252.566406 300.347656 C 250.738281 300.257812 249.914062 300.804688 249.734375 302.359375 C 249.734375 303.089844 249.734375 303.824219 249.734375 304.460938 C 249.824219 311.230469 249.734375 317.90625 249.734375 325.039062 L 246.347656 325.222656 C 240.402344 325.222656 234.367188 325.40625 228.421875 325.128906 C 225.949219 325.039062 225.128906 325.769531 224.851562 327.417969 C 224.851562 328.515625 224.851562 329.609375 224.945312 330.707031 C 224.945312 331.074219 224.945312 331.441406 224.851562 331.804688 C 224.945312 336.925781 224.761719 342.046875 224.945312 347.078125 C 225.035156 349.636719 224.121094 350.277344 221.742188 350.277344 C 215.707031 350.097656 209.761719 350.1875 203.816406 350.1875 L 200.066406 350.1875 L 200.066406 364.085938 C 199.972656 367.5625 199.789062 371.039062 199.699219 374.511719 C 196.132812 374.695312 192.566406 374.96875 188.996094 374.96875 C 185.429688 374.96875 179.941406 374.96875 175.09375 374.96875 L 175.09375 350.277344 L 157.167969 350.277344 C 150.214844 350.277344 150.214844 350.277344 150.214844 343.328125 C 150.214844 338.207031 150.125 333.179688 150.214844 328.148438 C 150.304688 326.042969 149.667969 325.222656 147.472656 325.3125 L 125.335938 325.3125 L 125.335938 316.898438 C 125.335938 313.242188 125.242188 309.765625 125.335938 306.199219 L 125.335938 301.535156 C 124.96875 299.980469 123.6875 300.347656 121.675781 300.347656 C 115.824219 300.53125 109.96875 300.347656 104.023438 300.347656 L 100.457031 300.347656 C 100.457031 293.214844 100.457031 286.355469 100.363281 279.589844 C 100.363281 275.566406 100.363281 275.566406 96.429688 275.566406 L 78.136719 275.566406 C 76.035156 275.566406 75.300781 274.925781 75.300781 272.730469 C 75.394531 267.335938 75.300781 261.9375 75.300781 256.453125 C 75.300781 256.359375 75.300781 256.269531 75.300781 256.179688 C 75.300781 255.722656 75.300781 255.261719 75.300781 254.804688 C 75.300781 253.433594 75.300781 252.0625 75.300781 250.691406 L 71.828125 250.507812 L 54.8125 250.507812 C 50.605469 250.507812 50.605469 250.507812 50.605469 246.117188 C 50.605469 241.730469 50.332031 234.960938 50.605469 229.476562 C 50.605469 229.019531 50.605469 228.558594 50.605469 228.101562 C 50.421875 226 49.234375 225.542969 46.582031 225.542969 C 39.8125 225.726562 33.042969 225.632812 25.910156 225.632812 L 25.910156 134.460938 L 35.605469 134.460938 C 39.628906 134.460938 43.652344 134.277344 47.679688 134.460938 C 49.597656 134.644531 50.421875 134.003906 50.605469 132.539062 C 50.605469 131.351562 50.605469 130.253906 50.515625 129.0625 C 50.515625 128.605469 50.515625 128.242188 50.605469 127.875 C 50.605469 122.753906 50.695312 117.726562 50.515625 112.601562 C 50.421875 110.132812 51.335938 109.402344 53.714844 109.496094 L 75.121094 109.496094 C 75.210938 108.214844 75.300781 107.207031 75.300781 106.109375 C 75.300781 105.746094 75.300781 105.289062 75.300781 104.921875 C 75.300781 104.464844 75.300781 104.097656 75.300781 103.640625 C 75.300781 103.367188 75.300781 103.183594 75.300781 103 C 75.394531 97.789062 75.394531 92.484375 75.300781 87.179688 C 75.300781 85.351562 75.851562 84.621094 77.773438 84.621094 L 147.746094 84.621094 C 149.757812 84.621094 150.125 85.625 150.125 87.273438 C 150.03125 92.484375 150.125 97.699219 150.125 102.910156 C 150.125 103.183594 150.125 103.457031 150.125 103.734375 C 150.125 105.011719 150.125 106.203125 150.125 107.480469 C 150.398438 109.128906 151.496094 109.769531 153.875 109.585938 C 159.726562 109.3125 165.671875 109.496094 171.527344 109.496094 L 174.820312 109.675781 L 174.820312 134.183594 L 200.066406 134.183594 L 200.066406 109.496094 L 218.632812 109.496094 C 223.847656 109.496094 224.761719 108.671875 225.035156 105.746094 C 225.035156 105.289062 225.035156 104.738281 224.945312 104.191406 C 224.945312 103.734375 224.945312 103.367188 225.035156 103 C 225.035156 97.972656 225.128906 92.757812 224.945312 87.730469 C 224.945312 85.535156 225.492188 84.621094 227.871094 84.621094 L 296.929688 84.621094 C 299.308594 84.621094 299.859375 85.535156 299.765625 87.730469 C 299.675781 92.851562 299.765625 97.972656 299.765625 103.277344 C 299.765625 103.550781 299.765625 103.824219 299.765625 104.191406 C 299.765625 104.648438 299.765625 105.011719 299.765625 105.46875 C 299.765625 106.75 299.765625 108.121094 299.765625 109.402344 L 324.554688 109.402344 L 324.554688 119.277344 C 324.554688 122.386719 324.644531 125.496094 324.554688 128.515625 L 324.554688 132.722656 C 324.828125 134.003906 325.558594 134.550781 327.296875 134.460938 Z M 142.164062 43.101562 C 142.164062 44.199219 142.074219 46.851562 142.074219 48.679688 C 142.074219 50.511719 142.074219 50.144531 143.539062 50.144531 L 150.398438 50.144531 C 150.398438 52.703125 150.488281 55.082031 150.398438 57.550781 C 150.398438 58.28125 150.671875 58.464844 151.402344 58.464844 L 157.53125 58.464844 C 158.8125 58.464844 158.8125 58.464844 158.8125 59.835938 L 158.8125 66.789062 L 166.039062 66.789062 C 166.953125 66.789062 167.320312 66.96875 167.226562 67.976562 C 167.136719 68.984375 167.226562 70.902344 167.226562 72.367188 L 167.226562 75.199219 L 174.636719 75.199219 C 175.367188 75.199219 175.550781 75.382812 175.550781 76.117188 L 175.550781 81.238281 C 175.550781 83.613281 175.550781 83.613281 177.929688 83.613281 L 183.96875 83.613281 L 183.96875 92.027344 L 188.632812 92.027344 L 192.199219 91.84375 C 192.199219 90.65625 192.289062 89.46875 192.289062 88.371094 L 192.289062 83.707031 L 199.609375 83.707031 C 200.429688 83.707031 200.707031 83.429688 200.707031 82.609375 C 200.707031 81.785156 200.707031 78.585938 200.613281 76.480469 C 200.523438 74.378906 200.796875 75.199219 201.804688 75.292969 L 209.027344 75.292969 C 209.027344 72.824219 209.027344 70.355469 208.9375 67.976562 C 208.9375 67.246094 209.210938 66.96875 209.945312 66.96875 L 217.351562 66.96875 L 217.351562 58.648438 L 224.671875 58.648438 C 225.492188 58.742188 225.859375 58.464844 225.769531 57.550781 L 225.769531 51.515625 C 225.769531 51.148438 225.859375 50.785156 225.859375 50.234375 L 234.089844 50.234375 L 234.089844 42.738281 C 234.089844 42.003906 234.367188 41.730469 235.007812 41.820312 L 242.414062 41.820312 L 242.414062 16.765625 C 239.855469 16.765625 237.476562 16.675781 235.007812 16.765625 C 234.273438 16.765625 234.089844 16.492188 234.089844 15.757812 L 234.089844 8.351562 L 225.769531 8.351562 L 225.769531 1.035156 C 225.769531 0.304688 225.675781 0.03125 224.851562 0.03125 L 201.621094 0.03125 C 200.886719 0.03125 200.613281 0.304688 200.707031 1.035156 L 200.707031 6.25 C 200.707031 8.351562 200.707031 8.351562 198.511719 8.351562 L 192.289062 8.351562 L 192.289062 16.582031 L 183.875 16.582031 L 183.875 8.445312 L 182.6875 8.445312 C 180.765625 8.445312 178.753906 8.351562 176.832031 8.445312 C 174.910156 8.535156 175.460938 8.167969 175.460938 7.070312 C 175.460938 5.972656 175.550781 3.046875 175.550781 0.945312 C 175.550781 0.394531 175.367188 0.121094 174.730469 0.121094 L 151.222656 0.121094 C 150.582031 0.121094 150.398438 0.304688 150.398438 0.945312 C 150.488281 3.046875 150.398438 5.152344 150.398438 7.253906 C 150.398438 7.621094 150.398438 8.078125 150.304688 8.445312 L 143.171875 8.445312 C 142.347656 8.445312 142.074219 8.625 142.074219 9.449219 C 142.074219 10.273438 142.074219 13.65625 142.164062 15.851562 C 142.164062 16.582031 141.984375 16.855469 141.160156 16.855469 C 140.335938 16.855469 138.414062 16.855469 137.042969 16.855469 L 133.84375 16.855469 L 133.84375 41.820312 L 140.792969 41.820312 C 141.800781 41.730469 142.164062 42.003906 142.164062 43.101562 Z M 142.164062 43.101562 " fill-opacity="1" fill-rule="nonzero"/></g><path fill="#e587a4" d="M 265.738281 173.050781 C 264.550781 173.050781 264.09375 172.683594 264.183594 171.496094 C 264.277344 170.308594 264.183594 166.925781 264.183594 164.636719 L 264.183594 159.058594 L 250.371094 159.058594 L 250.371094 146.988281 C 250.371094 145.800781 250.191406 145.25 248.816406 145.25 C 236.011719 145.34375 223.117188 145.34375 210.308594 145.25 C 208.9375 145.25 208.664062 145.800781 208.664062 146.988281 C 208.753906 149.914062 208.753906 152.75 208.753906 155.585938 C 208.753906 158.417969 208.753906 159.152344 205.1875 159.152344 L 194.851562 159.152344 L 194.851562 172.867188 L 180.765625 172.867188 L 180.765625 159.242188 L 178.9375 159.242188 C 175.644531 159.242188 172.351562 159.152344 169.058594 159.332031 C 167.226562 159.332031 166.863281 158.695312 166.863281 157.046875 C 167.046875 153.664062 166.953125 150.28125 166.953125 146.898438 C 166.953125 145.890625 166.769531 145.34375 165.671875 145.433594 L 126.617188 145.433594 C 125.609375 145.433594 125.242188 145.800781 125.242188 146.804688 C 125.242188 148.269531 125.335938 149.730469 125.335938 151.101562 C 125.335938 151.46875 125.335938 151.742188 125.335938 152.109375 C 125.335938 153.847656 125.335938 155.585938 125.242188 157.320312 C 125.242188 157.960938 125.242188 158.601562 125.152344 159.242188 L 113.261719 159.242188 C 111.890625 159.152344 111.433594 159.609375 111.433594 160.980469 C 111.523438 164.453125 111.433594 167.929688 111.523438 171.496094 C 111.523438 172.683594 111.25 173.234375 109.878906 173.140625 L 97.710938 173.140625 L 97.710938 214.75 L 109.238281 214.75 C 110.976562 214.660156 111.613281 215.117188 111.523438 216.945312 C 111.433594 218.777344 111.433594 223.074219 111.523438 226.183594 C 111.613281 229.292969 111.523438 228.652344 113.808594 228.652344 L 125.242188 228.652344 C 125.242188 232.949219 125.335938 236.972656 125.242188 240.90625 C 125.242188 242.1875 125.609375 242.550781 126.890625 242.550781 C 130.273438 242.460938 133.660156 242.550781 137.042969 242.550781 C 140.429688 242.550781 139.238281 242.550781 139.238281 244.746094 L 139.238281 256.359375 L 141.25 256.359375 C 144.542969 256.359375 147.835938 256.453125 151.128906 256.359375 C 152.683594 256.269531 153.324219 256.636719 153.234375 258.28125 C 153.140625 259.925781 153.140625 263.128906 153.140625 265.597656 L 153.140625 270.261719 C 157.441406 270.261719 161.464844 270.351562 165.488281 270.261719 C 166.679688 270.261719 167.046875 270.625 167.046875 271.816406 C 166.953125 274.652344 167.046875 277.484375 167.046875 280.320312 C 167.046875 283.15625 167.046875 284.160156 170.886719 284.160156 L 180.855469 284.160156 L 180.855469 298.0625 L 188.632812 298.0625 L 194.578125 297.878906 C 194.667969 295.867188 194.761719 293.945312 194.761719 292.027344 C 194.761719 290.105469 194.761719 286.996094 194.761719 284.253906 L 206.925781 284.253906 C 208.207031 284.253906 208.753906 283.886719 208.664062 282.421875 C 208.570312 279.039062 208.753906 275.65625 208.664062 272.273438 C 208.570312 270.808594 208.9375 270.167969 210.585938 270.261719 C 213.96875 270.351562 217.261719 270.261719 220.644531 270.261719 L 222.476562 270.261719 C 222.476562 266.054688 222.566406 262.03125 222.476562 258.007812 C 222.476562 256.816406 222.933594 256.359375 224.121094 256.453125 C 225.3125 256.542969 228.421875 256.453125 230.617188 256.453125 L 236.46875 256.453125 L 236.46875 242.550781 L 238.480469 242.550781 C 241.867188 242.550781 245.160156 242.460938 248.542969 242.550781 C 249.914062 242.550781 250.464844 242.1875 250.371094 240.722656 C 250.28125 237.339844 250.371094 234.046875 250.371094 230.753906 C 250.371094 230.023438 250.464844 229.382812 250.464844 228.46875 L 264.183594 228.46875 L 264.183594 216.214844 C 264.183594 215.027344 264.550781 214.660156 265.738281 214.660156 L 277.90625 214.660156 L 277.90625 173.050781 Z M 240.675781 221.792969 C 238.757812 221.792969 236.5625 221.425781 234.550781 221.882812 C 233.175781 222.34375 232.078125 223.4375 231.53125 224.8125 C 230.707031 231.121094 230.890625 231.121094 224.578125 231.394531 C 223.847656 231.488281 223.207031 231.578125 222.476562 231.667969 C 222.292969 232.21875 222.019531 232.585938 221.925781 232.949219 C 221.742188 235.417969 222.292969 238.4375 221.011719 239.992188 C 219.730469 241.546875 216.710938 240.449219 214.609375 241.089844 C 213.417969 241.636719 212.597656 242.644531 212.230469 243.832031 C 211.863281 245.753906 212.140625 247.765625 212.140625 250.234375 C 210.21875 250.324219 208.664062 250.691406 207.199219 250.507812 C 203.265625 249.960938 201.894531 251.695312 202.445312 255.355469 C 202.992188 259.011719 202.167969 260.84375 198.144531 260.203125 C 194.121094 259.5625 192.289062 261.207031 192.839844 265.414062 C 192.839844 266.785156 192.746094 268.066406 192.566406 269.4375 L 183.601562 269.4375 C 184.515625 262.488281 182.6875 257.914062 173.8125 260.566406 C 174.726562 253.25 173.539062 248.039062 165.03125 250.78125 C 164.667969 250.140625 164.484375 249.503906 164.300781 248.769531 C 163.933594 246.394531 164.574219 243.285156 163.203125 241.730469 C 161.832031 240.175781 158.90625 241.363281 156.710938 240.722656 C 155.613281 240.175781 154.695312 239.167969 154.421875 237.980469 C 154.238281 235.96875 154.148438 234.046875 154.332031 232.035156 C 153.691406 231.761719 153.050781 231.578125 152.320312 231.488281 C 145.550781 231.03125 145.367188 231.03125 144.910156 224.445312 C 144.636719 221.246094 142.53125 221.519531 140.609375 221.792969 C 136.128906 222.433594 134.757812 220.789062 135.03125 216.304688 C 135.398438 210.085938 135.398438 203.871094 135.121094 197.652344 C 135.03125 194.449219 135.855469 192.53125 139.421875 193.167969 C 142.988281 193.808594 145.367188 191.890625 144.910156 187.683594 C 144.636719 185.488281 144.816406 183.75 147.835938 183.566406 C 154.148438 183.203125 154.148438 183.019531 154.421875 176.617188 C 154.421875 175.703125 154.515625 174.878906 154.695312 173.964844 C 160.277344 173.964844 165.765625 173.875 171.160156 174.148438 C 171.984375 174.238281 173.265625 176.25 173.355469 177.347656 C 173.90625 183.382812 173.722656 183.566406 179.578125 183.566406 C 182.960938 183.476562 183.234375 185.304688 183.144531 187.867188 C 183.144531 192.621094 187.535156 195.273438 191.742188 192.804688 C 192.65625 192.253906 193.113281 190.058594 193.023438 188.6875 C 192.746094 184.9375 193.753906 182.925781 197.960938 183.660156 C 202.167969 184.390625 203.359375 182.46875 202.71875 178.722656 C 202.078125 174.972656 203.816406 173.601562 207.566406 173.875 C 211.316406 174.148438 216.53125 173.964844 221.835938 173.964844 C 221.925781 175.703125 221.835938 177.53125 221.742188 179.269531 C 221.46875 182.652344 222.75 184.207031 226.226562 183.660156 C 229.699219 183.109375 232.078125 184.757812 231.4375 188.871094 C 230.796875 192.988281 232.171875 193.535156 235.464844 193.167969 C 237.203125 193.078125 238.9375 193.078125 240.675781 193.167969 Z M 211.773438 216.945312 C 211.957031 220.238281 211.683594 222.160156 207.382812 221.609375 C 203.082031 221.0625 201.621094 223.714844 201.984375 227.003906 C 202.351562 230.296875 201.710938 231.667969 197.6875 231.210938 C 193.664062 230.753906 192.109375 233.222656 192.382812 236.332031 C 192.65625 239.441406 191.191406 240.90625 188.175781 240.816406 C 185.15625 240.722656 183.234375 240.632812 183.691406 236.609375 C 184.148438 232.585938 182.046875 230.753906 178.296875 231.210938 C 174.546875 231.667969 173.996094 228.742188 174.089844 226.273438 C 174.179688 223.804688 174.089844 221.792969 170.613281 221.519531 C 164.484375 221.152344 164.484375 220.96875 164.484375 214.933594 L 164.484375 212.28125 C 164.484375 210.820312 164.484375 209.449219 164.390625 207.984375 C 164.390625 205.148438 164.941406 202.679688 168.417969 202.773438 C 171.894531 202.863281 173.628906 204.417969 173.265625 207.617188 C 172.898438 210.820312 173.90625 212.648438 177.5625 212.464844 C 181.222656 212.28125 183.328125 213.5625 182.871094 217.859375 C 182.410156 222.160156 185.429688 221.976562 188.175781 221.976562 C 190.917969 221.976562 193.84375 222.066406 193.296875 218.136719 C 192.746094 214.203125 194.851562 212.464844 198.417969 212.558594 C 201.984375 212.648438 203.175781 210.636719 202.992188 207.527344 C 202.808594 204.417969 203.816406 202.773438 207.65625 202.773438 C 211.5 202.773438 211.863281 204.875 211.773438 207.894531 C 211.683594 210.910156 211.589844 213.65625 211.773438 216.945312 Z M 211.773438 216.945312 " fill-opacity="1" fill-rule="nonzero"/><g clip-path="url(#7320be2e78)"><path fill="#f7adc1" d="M 327.296875 134.460938 C 325.558594 134.550781 324.828125 134.09375 324.554688 132.722656 C 324.460938 132.355469 324.460938 131.992188 324.460938 131.625 C 324.460938 130.617188 324.554688 129.613281 324.554688 128.515625 C 324.644531 125.40625 324.554688 122.296875 324.554688 119.277344 L 324.554688 109.402344 L 299.765625 109.402344 C 299.765625 108.03125 299.765625 106.75 299.765625 105.46875 C 299.765625 104.738281 299.765625 104.007812 299.765625 103.277344 C 299.765625 97.972656 299.675781 92.851562 299.765625 87.730469 C 299.859375 85.535156 299.308594 84.621094 296.929688 84.621094 L 227.871094 84.621094 C 225.492188 84.621094 224.945312 85.535156 224.945312 87.730469 C 225.128906 92.757812 225.035156 97.972656 225.035156 103 C 225.035156 103.09375 225.035156 103.09375 225.035156 103.183594 C 225.035156 104.191406 225.035156 105.011719 225.035156 105.746094 C 224.851562 108.761719 223.847656 109.496094 218.632812 109.496094 L 200.066406 109.496094 L 200.066406 134.183594 L 174.820312 134.183594 L 174.820312 109.675781 L 171.527344 109.496094 C 165.671875 109.496094 159.726562 109.3125 153.875 109.585938 C 151.496094 109.769531 150.398438 109.035156 150.125 107.480469 C 150.03125 106.933594 150.03125 106.292969 150.03125 105.5625 C 150.03125 104.648438 150.03125 103.824219 150.03125 102.910156 C 150.125 97.699219 150.03125 92.484375 150.03125 87.273438 C 150.03125 85.625 149.667969 84.621094 147.652344 84.621094 L 77.773438 84.621094 C 75.851562 84.621094 75.300781 85.351562 75.300781 87.179688 C 75.394531 92.484375 75.394531 97.699219 75.300781 103 C 75.300781 103.640625 75.300781 104.28125 75.300781 104.921875 C 75.300781 105.289062 75.300781 105.746094 75.300781 106.109375 C 75.300781 107.207031 75.210938 108.214844 75.121094 109.496094 L 53.714844 109.496094 C 51.335938 109.402344 50.421875 110.132812 50.515625 112.605469 C 50.695312 117.726562 50.605469 122.753906 50.605469 127.875 C 50.605469 129.0625 50.605469 130.253906 50.605469 131.441406 C 50.605469 131.808594 50.605469 132.171875 50.605469 132.539062 C 50.421875 134.003906 49.691406 134.644531 47.679688 134.460938 C 43.652344 134.277344 39.628906 134.460938 35.605469 134.460938 L 25.910156 134.460938 L 25.910156 209.171875 C 33.042969 209.171875 39.8125 209.355469 46.582031 209.082031 C 49.691406 208.992188 50.789062 209.722656 50.605469 213.015625 C 50.332031 217.953125 50.515625 222.980469 50.605469 228.101562 C 50.605469 228.558594 50.605469 229.019531 50.605469 229.476562 C 50.605469 229.566406 50.605469 229.65625 50.605469 229.65625 C 50.605469 235.234375 50.605469 234.046875 54.8125 234.046875 L 71.828125 234.046875 L 75.300781 234.230469 C 75.300781 241.273438 75.394531 248.039062 75.300781 254.804688 C 75.300781 255.261719 75.300781 255.722656 75.300781 256.179688 C 75.300781 256.269531 75.300781 256.359375 75.300781 256.453125 C 75.394531 258.371094 76.125 259.011719 78.136719 259.011719 L 96.429688 259.011719 C 100.363281 259.011719 100.363281 259.011719 100.363281 263.035156 C 100.457031 269.804688 100.457031 276.664062 100.457031 283.796875 L 104.023438 283.796875 C 109.96875 283.796875 115.824219 283.976562 121.675781 283.796875 C 124.421875 283.703125 125.609375 284.34375 125.425781 287.363281 C 125.242188 290.378906 125.335938 295.957031 125.335938 300.347656 L 125.335938 308.761719 L 147.472656 308.761719 C 149.667969 308.667969 150.304688 309.492188 150.214844 311.597656 C 150.125 316.625 150.214844 321.65625 150.214844 326.777344 C 150.214844 333.816406 150.214844 333.816406 157.167969 333.816406 L 175.09375 333.816406 L 175.09375 358.601562 L 188.996094 358.601562 C 192.566406 358.601562 196.132812 358.328125 199.699219 358.144531 C 199.789062 354.667969 199.972656 351.191406 200.066406 347.71875 L 200.066406 333.910156 L 203.816406 333.910156 C 209.761719 333.910156 215.707031 333.816406 221.742188 333.910156 C 223.753906 334 224.671875 333.453125 224.851562 331.898438 C 224.851562 331.625 224.945312 331.257812 224.945312 330.800781 C 224.945312 329.703125 224.945312 328.605469 224.851562 327.507812 C 224.851562 322.476562 224.945312 317.449219 224.851562 312.511719 C 224.761719 309.765625 225.402344 308.667969 228.421875 308.761719 C 234.367188 309.035156 240.402344 308.851562 246.347656 308.851562 L 249.734375 308.667969 C 249.734375 307.296875 249.734375 305.925781 249.734375 304.554688 C 249.734375 303.824219 249.734375 303.089844 249.734375 302.449219 C 249.734375 297.148438 249.824219 291.933594 249.734375 286.8125 C 249.640625 284.617188 250.464844 283.886719 252.566406 283.976562 L 274.796875 283.976562 L 274.796875 259.195312 L 296.472656 259.195312 C 298.484375 259.289062 299.492188 258.738281 299.765625 257.09375 C 299.859375 256.726562 299.859375 256.359375 299.859375 255.902344 C 299.859375 254.988281 299.859375 254.074219 299.765625 253.160156 C 299.675781 248.128906 299.765625 243.101562 299.765625 237.980469 C 299.765625 236.789062 299.859375 235.601562 299.949219 234.046875 L 324.554688 234.046875 L 324.554688 230.296875 C 324.554688 229.292969 324.554688 228.378906 324.554688 227.371094 C 324.554688 222.25 324.644531 217.128906 324.460938 212.007812 C 324.460938 209.90625 325.195312 209.082031 327.390625 209.171875 C 331.046875 209.355469 334.796875 209.265625 338.457031 209.265625 L 349.160156 209.265625 L 349.160156 134.460938 Z M 277.90625 214.660156 L 265.738281 214.660156 C 264.550781 214.660156 264.183594 215.027344 264.183594 216.214844 L 264.183594 228.46875 L 250.464844 228.46875 C 250.464844 229.382812 250.371094 230.023438 250.371094 230.753906 C 250.371094 234.046875 250.28125 237.339844 250.371094 240.722656 C 250.464844 242.1875 249.914062 242.550781 248.542969 242.550781 C 245.160156 242.460938 241.867188 242.550781 238.480469 242.550781 L 236.46875 242.550781 L 236.46875 256.453125 L 230.617188 256.453125 C 228.421875 256.453125 225.3125 256.542969 224.121094 256.453125 C 222.933594 256.359375 222.476562 256.816406 222.476562 258.007812 C 222.566406 262.03125 222.476562 266.054688 222.476562 270.261719 L 220.644531 270.261719 C 217.261719 270.261719 213.96875 270.351562 210.585938 270.261719 C 208.9375 270.167969 208.570312 270.808594 208.664062 272.273438 C 208.753906 275.65625 208.570312 279.039062 208.664062 282.421875 C 208.753906 283.886719 208.207031 284.253906 206.925781 284.253906 L 194.761719 284.253906 C 194.761719 286.996094 194.761719 290.105469 194.761719 292.027344 C 194.761719 293.945312 194.667969 295.867188 194.578125 297.878906 L 188.632812 298.0625 L 180.855469 298.0625 L 180.855469 284.160156 L 170.886719 284.160156 C 167.046875 284.160156 167.046875 283.15625 167.046875 280.320312 C 167.046875 277.484375 166.953125 274.652344 167.046875 271.816406 C 167.046875 270.625 166.679688 270.261719 165.488281 270.261719 C 161.464844 270.351562 157.441406 270.261719 153.140625 270.261719 L 153.140625 265.597656 C 153.140625 263.128906 153.140625 259.925781 153.234375 258.28125 C 153.324219 256.636719 152.683594 256.269531 151.128906 256.359375 C 147.835938 256.453125 144.542969 256.359375 141.25 256.359375 L 139.238281 256.359375 L 139.238281 244.746094 C 139.238281 242.550781 140.429688 242.550781 137.042969 242.550781 C 133.660156 242.550781 130.273438 242.460938 126.890625 242.550781 C 125.609375 242.550781 125.242188 242.1875 125.242188 240.90625 C 125.335938 236.972656 125.242188 232.949219 125.242188 228.652344 L 113.808594 228.652344 C 111.523438 228.652344 111.613281 229.292969 111.523438 226.183594 C 111.433594 223.074219 111.433594 218.777344 111.523438 216.945312 C 111.613281 215.117188 110.976562 214.660156 109.238281 214.75 L 97.710938 214.75 L 97.710938 173.140625 L 109.878906 173.140625 C 111.25 173.234375 111.523438 172.683594 111.523438 171.496094 C 111.433594 167.929688 111.523438 164.453125 111.433594 160.980469 C 111.433594 159.609375 111.890625 159.152344 113.261719 159.242188 L 125.152344 159.242188 C 125.242188 158.601562 125.242188 157.960938 125.242188 157.320312 C 125.242188 155.585938 125.335938 153.847656 125.335938 152.109375 C 125.335938 151.742188 125.335938 151.46875 125.335938 151.101562 C 125.335938 149.640625 125.335938 148.175781 125.242188 146.804688 C 125.242188 145.800781 125.609375 145.433594 126.617188 145.433594 L 165.671875 145.433594 C 166.769531 145.34375 166.953125 145.890625 166.953125 146.898438 C 166.953125 150.28125 167.046875 153.664062 166.863281 157.046875 C 166.863281 158.695312 167.226562 159.332031 169.058594 159.332031 C 172.351562 159.152344 175.644531 159.242188 178.9375 159.242188 L 180.765625 159.242188 L 180.765625 172.867188 L 194.851562 172.867188 L 194.851562 159.152344 L 205.1875 159.152344 C 208.753906 159.152344 208.753906 158.417969 208.753906 155.585938 C 208.753906 152.75 208.753906 149.914062 208.664062 146.988281 C 208.664062 145.800781 208.9375 145.25 210.308594 145.25 C 223.117188 145.34375 236.011719 145.34375 248.816406 145.25 C 250.191406 145.25 250.371094 145.800781 250.371094 146.988281 L 250.371094 159.058594 L 264.183594 159.058594 L 264.183594 164.636719 C 264.183594 166.925781 264.277344 170.308594 264.183594 171.496094 C 264.09375 172.683594 264.550781 173.050781 265.738281 173.050781 L 277.90625 173.050781 Z M 150.03125 29.75 L 150.03125 26.183594 C 150.03125 24.628906 151.222656 23.441406 152.777344 23.441406 L 156.34375 23.441406 C 157.898438 23.441406 159.085938 24.628906 159.085938 26.183594 L 159.085938 29.75 C 159.085938 30.023438 158.996094 30.300781 158.996094 30.574219 C 159.363281 30.390625 159.820312 30.300781 160.183594 30.300781 L 163.753906 30.300781 C 165.308594 30.300781 166.496094 31.488281 166.496094 33.042969 L 166.496094 36.519531 C 166.496094 38.074219 165.308594 39.261719 163.753906 39.261719 L 160.183594 39.261719 C 158.628906 39.261719 157.441406 38.074219 157.441406 36.519531 L 157.441406 32.953125 C 157.441406 32.675781 157.53125 32.402344 157.53125 32.128906 C 157.167969 32.3125 156.710938 32.402344 156.34375 32.402344 L 152.777344 32.402344 C 151.222656 32.496094 150.03125 31.214844 150.03125 29.75 Z M 150.03125 29.75 " fill-opacity="1" fill-rule="nonzero"/></g></svg>