<svg xmlns="http://www.w3.org/2000/svg" xmlns:xlink="http://www.w3.org/1999/xlink" width="500" zoomAndPan="magnify" viewBox="0 0 375 374.999991" height="500" preserveAspectRatio="xMidYMid meet" version="1.0"><defs><clipPath id="962c4a3445"><path d="M 7.011719 53 L 367.761719 53 L 367.761719 347 L 7.011719 347 Z M 7.011719 53 " clip-rule="nonzero"/></clipPath><clipPath id="1511a3ef1a"><path d="M 7.011719 53 L 357 53 L 357 315 L 7.011719 315 Z M 7.011719 53 " clip-rule="nonzero"/></clipPath></defs><g clip-path="url(#962c4a3445)"><path fill="#9ac5dd" d="M 269.589844 117.378906 L 277.546875 103.195312 L 281.425781 96.359375 C 282.242188 95.035156 281.9375 93.808594 281.222656 92.480469 C 277.753906 85.542969 274.386719 78.503906 270.914062 71.460938 C 270.609375 70.953125 270.304688 70.339844 270.199219 69.726562 C 269.488281 67.378906 270.507812 66.054688 272.957031 66.257812 C 278.875 66.769531 284.589844 68.503906 290.304688 69.828125 C 293.367188 70.441406 296.53125 70.953125 299.695312 71.257812 C 301.019531 71.359375 302.246094 70.847656 303.164062 69.929688 C 308.777344 64.929688 314.285156 59.929688 320.105469 55.03125 C 323.878906 51.871094 325.613281 52.585938 326.53125 57.480469 C 327.859375 64.625 328.472656 71.871094 329.390625 79.011719 C 329.492188 81.5625 331.023438 83.707031 333.371094 84.726562 C 340.207031 88.195312 346.839844 92.074219 353.578125 95.851562 L 355.003906 96.972656 C 357.148438 99.21875 357.046875 100.035156 354.289062 101.359375 C 348.167969 104.113281 341.941406 107.277344 336.023438 109.21875 C 330.105469 111.15625 327.859375 115.441406 327.144531 120.851562 C 326.429688 126.257812 325.308594 131.5625 324.390625 136.871094 C 324.289062 137.378906 324.1875 137.992188 323.980469 138.503906 C 322.960938 141.667969 320.714844 142.277344 318.367188 139.828125 C 312.859375 134.011719 307.347656 128.300781 301.9375 122.378906 C 300.613281 120.644531 298.367188 119.828125 296.222656 120.238281 C 288.160156 121.15625 280.203125 121.871094 272.140625 122.484375 C 268.875 122.789062 267.957031 121.359375 269.589844 117.378906 Z M 93.855469 243.914062 C 93.246094 243.808594 92.53125 243.707031 91.917969 243.808594 C 84.265625 244.625 76.609375 245.441406 68.957031 246.566406 C 66.507812 247.074219 64.058594 246.15625 62.527344 244.21875 C 57.527344 239.015625 52.933594 233.402344 47.628906 228.402344 C 44.054688 225.035156 42.21875 225.339844 40.996094 230.238281 C 39.15625 237.484375 37.523438 244.832031 35.890625 252.175781 C 35.6875 253.503906 34.972656 254.625 33.851562 255.238281 C 31.09375 256.871094 28.238281 258.300781 25.378906 259.523438 C 19.972656 261.871094 14.359375 263.707031 9.257812 266.769531 C 7.113281 268.097656 7.011719 269.730469 8.949219 271.257812 L 10.582031 272.175781 L 31.199219 283.300781 C 32.523438 283.707031 33.441406 284.933594 33.648438 286.257812 C 33.851562 288.914062 34.15625 291.566406 34.464844 294.117188 C 35.074219 299.933594 35.6875 305.648438 36.199219 310.238281 C 36.707031 314.832031 38.75 315.035156 41.300781 312.996094 C 47.421875 307.6875 53.546875 302.484375 59.566406 297.074219 C 61.097656 295.546875 63.34375 294.933594 65.488281 295.441406 C 73.34375 297.074219 81.101562 298.605469 88.957031 300.035156 C 92.324219 300.75 93.855469 298.914062 92.734375 295.75 C 92.632812 295.238281 92.429688 294.730469 92.222656 294.21875 C 89.875 289.320312 87.632812 284.320312 85.082031 279.523438 C 82.527344 274.730469 81.816406 269.933594 85.488281 264.933594 C 89.164062 259.933594 92.429688 253.605469 95.695312 247.890625 C 97.328125 245.238281 96.917969 244.523438 93.855469 243.914062 Z M 310.203125 226.667969 C 326.53125 213.503906 342.859375 196.054688 358.78125 180.339844 C 363.578125 175.542969 365.007812 172.6875 362.863281 170.136719 C 361.742188 168.707031 359.496094 167.277344 356.230469 165.644531 C 354.289062 164.726562 352.25 164.011719 350.105469 163.605469 C 344.390625 162.6875 338.777344 161.871094 333.0625 160.953125 C 328.472656 160.238281 323.878906 159.523438 319.289062 158.808594 C 303.878906 156.359375 288.46875 154.117188 272.957031 152.277344 C 263.464844 151.15625 258.058594 147.175781 253.769531 139.117188 C 242.339844 117.378906 232.136719 95.136719 219.277344 74.21875 C 210.601562 59.726562 204.480469 59.320312 196.113281 74.011719 C 183.558594 96.15625 171.925781 118.707031 159.984375 141.257812 C 157.84375 145.238281 155.191406 148.300781 150.699219 149.320312 C 140.289062 151.972656 129.777344 154.117188 119.164062 155.75 C 99.46875 158.503906 79.46875 159.625 60.28125 165.035156 C 52.015625 167.382812 50.28125 172.6875 55.382812 179.421875 C 56.8125 181.054688 58.34375 182.585938 59.875 184.015625 L 117.328125 238.300781 C 120.796875 241.667969 123.347656 245.136719 122.429688 250.339844 C 120.898438 259.117188 119.574219 267.890625 118.144531 276.667969 L 117.738281 279.320312 L 115.59375 292.789062 L 115.082031 295.75 L 114.980469 296.566406 L 113.960938 302.890625 L 112.839844 309.832031 L 112.632812 311.257812 L 112.632812 311.464844 L 112.53125 312.179688 L 112.328125 313.8125 L 112.226562 314.21875 L 110.492188 325.136719 L 109.574219 330.75 C 109.367188 335.339844 109.777344 338.8125 110.59375 341.261719 C 112.429688 346.667969 116.820312 347.28125 123.757812 344.015625 C 148.453125 332.484375 173.046875 320.648438 197.335938 308.300781 C 204.785156 304.523438 210.910156 304.933594 218.054688 308.605469 C 242.035156 320.75 266.324219 332.484375 290.507812 344.320312 C 300.816406 349.320312 307.449219 344.832031 306.734375 333.503906 C 306.632812 331.667969 306.53125 329.832031 306.226562 327.996094 C 302.855469 309.933594 300 291.769531 296.019531 273.914062 C 292.039062 256.054688 293.875 239.832031 310.203125 226.667969 Z M 366.433594 264.015625 L 365.515625 263.199219 C 361.230469 260.851562 357.148438 258.503906 352.863281 256.257812 C 351.433594 255.648438 350.515625 254.320312 350.414062 252.789062 C 349.800781 248.300781 349.496094 243.808594 348.574219 239.320312 C 347.65625 234.832031 347.046875 235.851562 344.597656 237.789062 L 334.085938 247.074219 C 333.574219 247.6875 332.757812 247.992188 331.941406 247.890625 C 329.902344 247.789062 327.960938 247.484375 326.023438 246.972656 C 322.449219 246.257812 318.980469 245.136719 315.308594 244.832031 C 313.675781 244.726562 313.0625 245.542969 313.46875 246.972656 L 313.980469 248.097656 L 320.410156 261.15625 C 320.921875 261.871094 320.921875 262.789062 320.511719 263.605469 L 318.0625 267.789062 L 313.164062 276.667969 C 312.144531 279.117188 312.652344 280.035156 314.695312 279.832031 C 319.796875 279.421875 324.796875 279.015625 329.796875 278.402344 C 331.125 278.199219 332.453125 278.707031 333.269531 279.832031 L 343.574219 290.648438 C 345.003906 292.179688 346.433594 291.769531 347.046875 289.832031 L 347.351562 288.808594 C 347.863281 285.441406 348.574219 282.179688 348.984375 278.808594 C 349.390625 275.441406 350.820312 272.789062 354.496094 271.566406 C 358.371094 270.136719 362.148438 268.503906 365.925781 266.667969 C 367.660156 265.851562 367.761719 265.339844 366.433594 264.015625 Z M 366.433594 264.015625 " fill-opacity="1" fill-rule="nonzero"/></g><path fill="#3f7594" d="M 358.78125 180.339844 C 342.859375 196.054688 326.53125 213.503906 310.203125 226.667969 C 293.875 239.832031 292.039062 256.054688 296.019531 273.914062 C 300 291.769531 302.855469 309.933594 306.226562 327.996094 C 306.53125 329.832031 306.632812 331.667969 306.734375 333.503906 C 307.449219 344.832031 300.816406 349.320312 290.507812 344.320312 C 266.324219 332.484375 242.035156 320.75 218.054688 308.605469 C 210.910156 304.933594 204.785156 304.523438 197.335938 308.300781 C 173.046875 320.648438 148.453125 332.484375 123.757812 344.015625 C 116.820312 347.28125 112.429688 346.667969 110.59375 341.261719 C 109.777344 338.8125 109.367188 335.339844 109.574219 330.75 L 110.492188 325.136719 C 113.554688 323.8125 116.820312 322.179688 120.289062 320.238281 C 121.410156 319.628906 122.429688 319.015625 123.554688 318.402344 C 125.085938 317.484375 126.617188 316.566406 128.144531 315.648438 C 128.757812 315.238281 129.472656 314.832031 130.085938 314.421875 C 130.1875 314.320312 130.289062 314.320312 130.390625 314.21875 C 130.902344 313.914062 131.308594 313.605469 131.820312 313.300781 C 132.839844 312.6875 133.859375 311.972656 134.882812 311.363281 C 137.230469 309.832031 139.574219 308.300781 141.820312 306.667969 C 143.046875 305.851562 144.269531 304.933594 145.496094 304.117188 C 157.433594 295.648438 167.027344 288.097656 167.945312 287.382812 C 171.621094 285.546875 175.394531 283.707031 179.070312 281.769531 C 186.519531 277.992188 192.539062 278.402344 199.785156 282.074219 C 223.769531 294.21875 248.054688 305.953125 272.242188 317.789062 C 282.550781 322.789062 289.082031 318.402344 288.46875 306.972656 C 288.367188 305.136719 288.160156 303.300781 287.855469 301.464844 C 284.589844 283.402344 281.628906 265.238281 277.652344 247.382812 C 274.078125 231.464844 275.304688 216.972656 287.039062 204.625 C 289.082031 203.199219 330.511719 173.707031 342.351562 173.199219 C 349.496094 172.789062 357.554688 171.972656 363.066406 170.136719 C 364.902344 172.6875 363.476562 175.542969 358.78125 180.339844 Z M 358.78125 180.339844 " fill-opacity="1" fill-rule="nonzero"/><g clip-path="url(#1511a3ef1a)"><path fill="#c0e3f1" d="M 354.289062 101.359375 C 348.167969 104.113281 341.941406 107.277344 336.023438 109.21875 C 330.105469 111.15625 327.859375 115.441406 327.144531 120.851562 C 326.429688 126.257812 325.308594 131.5625 324.390625 136.871094 C 324.289062 137.378906 324.1875 137.992188 323.980469 138.503906 C 322.960938 141.667969 320.714844 142.277344 318.367188 139.828125 C 312.859375 134.011719 307.347656 128.300781 301.9375 122.378906 C 300.613281 120.644531 298.367188 119.828125 296.222656 120.238281 C 288.160156 121.15625 280.203125 121.871094 272.140625 122.484375 C 268.875 122.789062 267.957031 121.359375 269.589844 117.378906 L 277.546875 103.195312 L 281.425781 96.359375 C 282.242188 95.035156 281.9375 93.808594 281.222656 92.480469 C 277.753906 85.542969 274.386719 78.503906 270.914062 71.460938 C 270.609375 70.953125 270.304688 70.339844 270.199219 69.726562 C 269.488281 67.378906 270.507812 66.054688 272.957031 66.257812 C 278.875 66.769531 284.589844 68.503906 290.304688 69.828125 C 293.367188 70.441406 296.53125 70.953125 299.695312 71.257812 C 301.019531 71.359375 302.246094 70.847656 303.164062 69.929688 C 308.777344 64.929688 314.285156 59.929688 320.105469 55.03125 C 323.878906 51.871094 325.613281 52.585938 326.53125 57.480469 C 327.859375 64.625 328.472656 71.871094 329.390625 79.011719 C 329.492188 81.5625 331.023438 83.707031 333.371094 84.726562 C 340.207031 88.195312 346.839844 92.074219 353.578125 95.851562 L 355.003906 96.972656 C 357.148438 99.21875 357.046875 100.035156 354.289062 101.359375 Z M 93.855469 243.914062 C 93.246094 243.808594 92.53125 243.707031 91.917969 243.808594 C 84.265625 244.625 76.609375 245.441406 68.957031 246.566406 C 66.507812 247.074219 64.058594 246.15625 62.527344 244.21875 C 57.527344 239.015625 52.933594 233.402344 47.628906 228.402344 C 44.054688 225.035156 42.21875 225.339844 40.996094 230.238281 C 39.15625 237.484375 37.523438 244.832031 35.890625 252.175781 C 35.6875 253.503906 34.972656 254.625 33.851562 255.238281 C 31.09375 256.871094 28.238281 258.300781 25.378906 259.523438 C 19.972656 261.871094 14.359375 263.707031 9.257812 266.769531 C 7.113281 268.097656 7.011719 269.730469 8.949219 271.257812 L 10.582031 272.175781 L 31.199219 283.300781 C 32.523438 283.707031 33.441406 284.933594 33.648438 286.257812 C 33.851562 288.914062 34.15625 291.566406 34.464844 294.117188 C 35.074219 299.933594 35.6875 305.648438 36.199219 310.238281 C 36.707031 314.832031 38.75 315.035156 41.300781 312.996094 C 47.421875 307.6875 53.546875 302.484375 59.566406 297.074219 C 61.097656 295.546875 63.34375 294.933594 65.488281 295.441406 C 73.34375 297.074219 81.101562 298.605469 88.957031 300.035156 C 92.324219 300.75 93.855469 298.914062 92.734375 295.75 C 92.632812 295.238281 92.429688 294.730469 92.222656 294.21875 C 89.875 289.320312 87.632812 284.320312 85.082031 279.523438 C 82.527344 274.730469 81.816406 269.933594 85.488281 264.933594 C 89.164062 259.933594 92.429688 253.605469 95.695312 247.890625 C 97.328125 245.238281 96.917969 244.523438 93.855469 243.914062 Z M 165.597656 162.890625 C 175.804688 158.300781 203.460938 97.992188 205.398438 90.441406 C 207.335938 82.890625 209.582031 72.175781 203.460938 77.074219 C 198.664062 80.851562 166.824219 152.175781 159.679688 155.75 C 152.535156 159.320312 105.796875 159.726562 109.777344 162.585938 C 113.757812 165.441406 155.394531 167.484375 165.597656 162.890625 Z M 101 168.199219 C 98.652344 166.460938 91.917969 165.851562 91.917969 165.851562 C 90.589844 165.851562 83.242188 168.199219 85.082031 171.257812 C 86.917969 174.320312 91.40625 181.15625 96.613281 177.789062 C 101.816406 174.421875 103.347656 169.933594 101 168.199219 Z M 292.039062 166.566406 C 280.710938 161.972656 254.894531 158.707031 250.605469 150.441406 C 246.320312 142.175781 241.523438 125.441406 238.15625 133.707031 C 238.15625 133.707031 239.382812 162.992188 254.28125 167.484375 C 269.179688 171.972656 303.367188 171.15625 292.039062 166.566406 Z M 175.089844 257.074219 C 169.375 260.339844 159.882812 266.257812 151.925781 271.871094 C 140.1875 280.136719 131.921875 287.789062 143.964844 284.933594 C 145.289062 284.625 151.414062 280.441406 159.167969 276.257812 C 169.886719 270.339844 183.867188 264.421875 192.847656 268.605469 C 208.359375 275.851562 225.808594 288.503906 221.828125 276.054688 C 217.847656 263.605469 189.273438 249.117188 175.089844 257.074219 Z M 262.648438 244.523438 L 262.035156 244.015625 L 253.054688 239.015625 C 252.035156 238.605469 251.320312 237.6875 251.320312 236.566406 C 250.914062 233.402344 250.710938 230.238281 250.097656 227.074219 C 249.484375 223.910156 248.871094 224.523438 247.238281 225.953125 L 239.6875 232.585938 C 239.28125 232.992188 238.769531 233.199219 238.15625 233.097656 C 236.832031 232.992188 235.402344 232.789062 234.074219 232.484375 C 231.523438 231.769531 228.972656 231.257812 226.421875 230.953125 C 225.296875 230.851562 224.789062 231.359375 225.195312 232.484375 C 225.296875 232.6875 225.402344 232.992188 225.503906 233.199219 L 230.09375 242.484375 C 230.402344 242.992188 230.402344 243.707031 230.09375 244.21875 C 229.585938 245.238281 228.972656 246.257812 228.359375 247.28125 L 224.890625 253.503906 C 224.175781 255.238281 224.585938 255.851562 226.011719 255.75 L 236.625 254.730469 C 237.648438 254.523438 238.566406 254.933594 239.175781 255.75 L 246.421875 263.402344 C 247.445312 264.523438 248.464844 264.21875 248.972656 262.789062 C 249.484375 261.359375 249.078125 262.382812 249.078125 262.175781 C 249.585938 259.730469 249.996094 257.382812 250.300781 255.035156 C 250.605469 252.6875 251.628906 250.75 254.28125 249.933594 C 256.933594 249.117188 259.691406 247.585938 262.34375 246.464844 C 264.996094 245.339844 263.566406 245.542969 262.648438 244.523438 Z M 262.648438 244.523438 " fill-opacity="1" fill-rule="nonzero"/></g></svg>